<svg width="900" height="139" viewBox="0 0 900 139" fill="none" xmlns="http://www.w3.org/2000/svg">
<g clip-path="url(#clip0_6_2444)">
<g clip-path="url(#clip1_6_2444)">
<g clip-path="url(#clip2_6_2444)">
<g opacity="0.113">
<path d="M118.711 3.70996H194.277V32.7684L152.701 32.7991V54.3803L188.697 54.3495V82.7298L152.701 82.7938V106.719H194.277V135.67H118.711V3.70996Z" fill="#424453"/>
<path d="M347.556 3.71003C347.556 3.71003 303.822 78.1235 299.567 84.8271C294.572 92.7199 283.72 105.206 267.302 104.99C240.572 104.59 230.536 86.122 230.536 69.5346C230.534 60.2658 234.161 51.3646 240.641 44.7374C247.121 38.1103 255.939 34.2842 265.206 34.0787C287.404 33.6304 303.914 54.8914 303.914 54.8914L321.272 26.9274C321.272 26.9274 301.632 0.257043 265.529 1.0761C211.16 2.27876 195.342 47.8317 195.342 68.9051C195.342 113.348 229.565 135.547 257.498 138.275C297.734 142.189 319.763 115.905 319.763 115.905C319.763 115.905 319.486 115.905 320.857 115.796C328.981 115.704 350.394 115.905 350.394 115.905V135.668H383.09V3.71003H347.556ZM351.055 88.2647H333.542L351.054 58.3738L351.055 88.2647Z" fill="#424453"/>
<path d="M416.571 135.744V35.219H390.18V3.66309H476.893V35.219H450.547V135.744H416.571Z" fill="#424453"/>
<path d="M552.846 85.229H517.88V135.746H483.938V3.69434H517.883V53.8415H552.848V3.69434H586.809V135.743H552.846V85.229Z" fill="#424453"/>
<path d="M597.181 135.744V3.72461H630.956V106.578H670.59V135.744L597.181 135.744Z" fill="#424453"/>
<path d="M718.779 105.684C738.018 105.684 753.649 90.3911 753.649 68.6863C753.649 59.3902 749.956 50.4748 743.383 43.9014C736.809 37.328 727.894 33.6352 718.598 33.6352C709.302 33.6352 700.386 37.328 693.813 43.9014C687.24 50.4748 683.547 59.3902 683.547 68.6863C683.554 89.6054 700.312 105.684 718.779 105.684ZM670.173 20.3739C683.371 7.48669 699.879 0.950218 718.964 0.950218C736.877 0.935639 754.075 7.98084 766.83 20.559C773.374 26.7995 778.584 34.3027 782.146 42.6147C785.707 50.9267 787.545 59.8747 787.548 68.9175C787.711 78.0351 786.049 87.0933 782.662 95.56C779.275 104.027 774.23 111.731 767.824 118.221C761.417 124.71 753.779 129.854 745.356 133.351C736.934 136.847 727.898 138.625 718.779 138.581C698.985 138.581 682.044 131.505 668.832 117.631C656.238 104.404 649.84 87.9864 649.84 68.3777C649.804 59.4164 651.587 50.5411 655.082 42.2895C658.577 34.0379 663.711 26.5825 670.173 20.3739Z" fill="#424453"/>
<path d="M784.48 135.745V3.70996H815.096L866.045 77.0412V3.70996H899.99V135.745H870.148L818.395 62.1969V135.745H784.48Z" fill="#424453"/>
<path d="M85.9216 69.2726C85.9216 45.5019 72.433 32.1056 47.475 32.1056H33.925V106.748H47.6447C73.6357 106.748 85.9216 95.2629 85.9216 69.2726ZM0.010498 135.745V3.70996H47.475C69.5346 3.70996 84.9501 6.48478 99.4108 19.4495C112.653 31.3352 119.682 48.6001 119.682 70.3209C119.682 90.3613 112.853 106.887 99.6419 119.343C84.8278 133.063 71.7395 135.683 52.2082 135.683L0.010498 135.745Z" fill="#424453"/>
</g>
</g>
</g>
</g>
<defs>
<clipPath id="clip0_6_2444">
<rect width="900" height="137.72" fill="white" transform="translate(0 0.950195)"/>
</clipPath>
<clipPath id="clip1_6_2444">
<rect width="900" height="137.72" fill="white" transform="translate(0 0.950195)"/>
</clipPath>
<clipPath id="clip2_6_2444">
<rect width="899.979" height="137.72" fill="white" transform="translate(0.010498 0.950195)"/>
</clipPath>
</defs>
</svg>
