<svg width="65" height="38" viewBox="0 0 65 38" fill="none" xmlns="http://www.w3.org/2000/svg">
<g clip-path="url(#clip0_6_2389)">
<g clip-path="url(#clip1_6_2389)">
<path d="M61.16 1.02051H3.27013C1.88949 1.02051 0.770264 2.13974 0.770264 3.52037V34.3807C0.770264 35.7613 1.88949 36.8806 3.27013 36.8806H61.16C62.5406 36.8806 63.6599 35.7613 63.6599 34.3807V3.52037C63.6599 2.13974 62.5406 1.02051 61.16 1.02051Z" stroke="#707070" stroke-width="0.999946"/>
<path d="M23.342 11.9355L23.3645 18.4303L22.6027 18.5649L20.1235 13.9547L20.1399 19L19.3608 19.1376L19.3383 12.6428L20.0957 12.509L22.5859 17.1307L22.5716 12.0716L23.342 11.9355ZM27.9841 16.9135L27.9829 17.6145L25.3253 18.084L25.3264 17.383L27.9841 16.9135ZM25.4499 11.5632L25.4681 18.0587L24.6933 18.1956L24.6708 11.7008L25.4499 11.5632ZM27.6166 13.9745L27.6198 14.6747L25.3171 15.0815L25.3183 14.3806L27.6166 13.9745ZM27.9258 11.1258L27.9254 11.8311L25.3067 12.2937L25.3071 11.5884L27.9258 11.1258ZM31.0076 10.5814L31.0258 17.077L30.2553 17.2131L30.2371 10.7175L31.0076 10.5814ZM32.6134 10.2978L32.613 11.003L28.6309 11.7065L28.6313 11.0012L32.6134 10.2978Z" fill="#575D5E"/>
<path d="M21.7935 25.0734L20.4863 25.3043L20.4843 24.3584L21.4987 24.1882C21.6685 24.1552 21.8126 24.0955 21.9313 24.0091C22.0494 23.9198 22.1367 23.8077 22.1932 23.6727C22.2497 23.5377 22.2745 23.3831 22.2675 23.2088C22.2617 23.058 22.239 22.9296 22.1994 22.8235C22.1622 22.7141 22.0959 22.6335 22.0005 22.5819C21.9075 22.527 21.7809 22.5092 21.6206 22.5285L20.9057 22.6504L20.9242 28.0613L19.6863 28.2799L19.6594 21.7859L21.4868 21.4676C21.7533 21.4264 22.0025 21.4226 22.2346 21.456C22.4661 21.4865 22.6709 21.5589 22.8488 21.6733C23.0291 21.7843 23.1765 21.9368 23.2911 22.1308C23.4057 22.3248 23.4779 22.565 23.5077 22.8513C23.5412 23.1757 23.5023 23.4608 23.3909 23.7066C23.282 23.949 23.1156 24.1525 22.8917 24.317C22.6708 24.481 22.4089 24.5987 22.1061 24.67L21.7935 25.0734ZM21.7726 27.9114L20.1278 28.2019L20.6058 27.0418L21.6497 26.8619C21.8189 26.826 21.9589 26.7596 22.0697 26.6627C22.1806 26.5658 22.2608 26.4474 22.3105 26.3077C22.3597 26.1651 22.3811 26.0081 22.3746 25.8367C22.371 25.7153 22.354 25.5933 22.3234 25.4708C22.2923 25.3453 22.2374 25.245 22.1586 25.1696C22.0793 25.0914 21.9607 25.0602 21.8029 25.0762L20.6854 25.2692L20.6921 24.3217L21.9438 24.1051L22.2193 24.4269C22.495 24.3871 22.7294 24.4171 22.9226 24.5169C23.1182 24.6133 23.2718 24.7587 23.3835 24.9532C23.4953 25.1477 23.5642 25.3781 23.5904 25.6442C23.6368 26.0586 23.5898 26.4239 23.4493 26.7404C23.3112 27.0534 23.0978 27.3113 22.8093 27.514C22.5203 27.7139 22.1747 27.8463 21.7726 27.9114ZM26.7208 21.7615L25.4387 27.2638L24.0969 27.5008L25.9875 20.668L26.8316 20.519L26.7208 21.7615ZM27.7847 26.8494L26.4297 21.7058L26.3078 20.6115L27.1086 20.47L29.0572 26.6246L27.7847 26.8494ZM27.8153 24.4203L27.815 25.505L25.0448 25.9943L25.0452 24.9096L27.8153 24.4203ZM33.9128 19.2681L33.931 25.7636L32.7234 25.9769L30.8736 21.9742L30.8881 26.3011L29.6502 26.5198L29.6234 20.0258L30.8353 19.8117L32.6945 23.8173L32.6792 19.486L33.9128 19.2681ZM36.1289 18.8766L36.1514 25.3714L34.9135 25.5901L34.8867 19.096L36.1289 18.8766ZM39.1977 18.3345L37.2101 21.9394L35.9935 23.7701L35.7397 22.409L36.5127 20.8977L37.6265 18.612L39.1977 18.3345ZM37.7876 25.0824L36.4236 22.2882L37.2843 21.3238L39.1856 24.8354L37.7876 25.0824ZM40.9377 18.0271L40.9559 24.5227L39.7267 24.7398L39.7085 18.2442L40.9377 18.0271ZM46.2573 17.0874L46.2755 23.583L45.0679 23.7963L43.2182 19.7935L43.2327 24.1205L41.9947 24.3392L41.9679 17.8451L43.1798 17.631L45.039 21.6366L45.0237 17.3053L46.2573 17.0874ZM51.3954 19.264L51.4603 21.9306C51.3213 22.1545 51.1454 22.3463 50.9325 22.5059C50.7197 22.6655 50.488 22.7942 50.2375 22.892C49.9875 22.9927 49.7367 23.0638 49.4851 23.1052C49.0975 23.1678 48.7617 23.1453 48.4779 23.0377C48.194 22.9301 47.9575 22.7621 47.7684 22.5337C47.5816 22.3018 47.4386 22.031 47.3392 21.7213C47.2428 21.411 47.1858 21.0803 47.1685 20.7293L47.1433 19.6268C47.1326 19.2627 47.1604 18.9067 47.2269 18.5587C47.2934 18.2107 47.4064 17.8902 47.5659 17.5972C47.7254 17.3042 47.941 17.0593 48.2128 16.8625C48.4869 16.6623 48.8252 16.5311 49.2278 16.4689C49.6685 16.403 50.0357 16.4348 50.3293 16.5645C50.6225 16.6912 50.8575 16.9011 51.0342 17.1943C51.2105 17.4845 51.3377 17.834 51.4158 18.2427L50.2169 18.4545C50.1882 18.2751 50.1456 18.11 50.0892 17.9593C50.0323 17.8057 49.9476 17.6882 49.8351 17.607C49.722 17.5228 49.5594 17.495 49.3472 17.5235C49.1177 17.5551 48.9354 17.635 48.8003 17.763C48.6681 17.8905 48.5689 18.0449 48.5027 18.2262C48.4366 18.4075 48.3951 18.6023 48.3783 18.8105C48.3639 19.0154 48.363 19.212 48.3754 19.4002L48.4115 20.5142C48.4203 20.6822 48.4356 20.8611 48.4571 21.0507C48.4816 21.2397 48.5277 21.4161 48.5952 21.5797C48.6652 21.74 48.7661 21.865 48.8981 21.9547C49.0294 22.0416 49.2065 22.0669 49.4292 22.0305C49.5302 22.0127 49.621 21.9877 49.7016 21.9556C49.7846 21.9201 49.862 21.8782 49.9338 21.8298C50.008 21.778 50.0816 21.7233 50.1548 21.6658L50.1793 20.4652L49.2963 20.6212L49.2961 19.6348L51.3954 19.264Z" fill="#575D5E"/>
</g>
</g>
<defs>
<clipPath id="clip0_6_2389">
<rect width="63.89" height="36.86" fill="white" transform="translate(0.27002 0.520508)"/>
</clipPath>
<clipPath id="clip1_6_2389">
<rect width="63.8895" height="36.86" fill="white" transform="translate(0.270264 0.520508)"/>
</clipPath>
</defs>
</svg>
