<svg width="65" height="38" viewBox="0 0 65 38" fill="none" xmlns="http://www.w3.org/2000/svg">
<g clip-path="url(#clip0_6_2375)">
<path d="M61.2698 1.02051H3.37999C1.99935 1.02051 0.880127 2.13974 0.880127 3.52037V34.3807C0.880127 35.7613 1.99935 36.8806 3.37999 36.8806H61.2698C62.6505 36.8806 63.7697 35.7613 63.7697 34.3807V3.52037C63.7697 2.13974 62.6505 1.02051 61.2698 1.02051Z" stroke="#70706E" stroke-width="0.999946"/>
<path d="M44.439 25.358H42.002L45.389 13.126H47.826L44.439 25.358Z" fill="#70706E"/>
<path d="M43.1737 13.5089C43.0826 13.39 42.9633 13.2957 42.8266 13.2346C42.6898 13.1735 42.54 13.1475 42.3907 13.1589H28.9987L28.3377 15.5589H40.5197L39.8087 18.1189H30.0647V18.1129H27.6277L25.6067 25.4129H28.0437L29.3987 20.5129H40.3537C40.7062 20.5099 41.0471 20.3864 41.3197 20.1629C41.608 19.9478 41.8169 19.6433 41.9137 19.2969L43.2687 14.3969C43.3233 14.2517 43.3432 14.0958 43.3267 13.9416C43.3102 13.7874 43.2578 13.6392 43.1737 13.5089Z" fill="#70706E"/>
<path d="M24.1867 24.5912C24.1211 24.8268 23.9805 25.0345 23.7861 25.1829C23.5917 25.3312 23.3542 25.4121 23.1096 25.4132H10.5446C10.3979 25.4237 10.2508 25.3972 10.1169 25.336C9.98309 25.2749 9.86677 25.181 9.77865 25.0632C9.69407 24.9373 9.64047 24.7933 9.62222 24.6428C9.60397 24.4923 9.62159 24.3396 9.67364 24.1972L12.7376 13.1592H15.1746L12.4376 23.0202H22.1876L24.9246 13.1592H27.3616L24.1867 24.5912Z" fill="#70706E"/>
<path d="M52.0357 13.1484L55.1167 19.2784L48.6367 25.4084L52.0357 13.1484Z" fill="#098041"/>
<path d="M49.8646 13.1484L52.9467 19.2784L46.4617 25.4084L49.8646 13.1484Z" fill="#E97626"/>
</g>
<defs>
<clipPath id="clip0_6_2375">
<rect width="63.8895" height="36.86" fill="white" transform="translate(0.380127 0.520508)"/>
</clipPath>
</defs>
</svg>
