<svg width="36" height="34" viewBox="0 0 36 34" fill="none" xmlns="http://www.w3.org/2000/svg">
<path d="M32.3555 8.44019H31.7305V7.19019C31.7305 3.74394 28.9268 0.940186 25.4805 0.940186H10.4805C7.03422 0.940186 4.23047 3.74394 4.23047 7.19019V8.44019H3.60547C1.88172 8.44019 0.480469 9.84269 0.480469 11.5652V14.6902C0.480469 15.3802 1.03922 15.9402 1.73047 15.9402C2.42172 15.9402 2.98047 15.3802 2.98047 14.6902V11.5652C2.98047 11.2202 3.26172 10.9402 3.60547 10.9402H4.23047V23.4402C4.23047 25.4739 5.22172 27.2664 6.73047 28.4077V30.9402C6.73047 32.3189 7.85172 33.4402 9.23047 33.4402H11.7305C13.1092 33.4402 14.2305 32.3189 14.2305 30.9402V29.6902H21.7305V30.9402C21.7305 32.3189 22.8518 33.4402 24.2305 33.4402H26.7305C28.1092 33.4402 29.2305 32.3189 29.2305 30.9402V28.4077C30.7393 27.2652 31.7305 25.4727 31.7305 23.4402V10.9402H32.3555C32.6993 10.9402 32.9805 11.2202 32.9805 11.5652V14.6902C32.9805 15.3802 33.5393 15.9402 34.2305 15.9402C34.9217 15.9402 35.4805 15.3802 35.4805 14.6902V11.5652C35.4805 9.84269 34.0793 8.44019 32.3555 8.44019ZM6.73047 8.44019H29.2305V17.6464C28.0992 18.1589 26.8618 18.4402 25.6193 18.4402H10.3417C9.10047 18.4402 7.86172 18.1589 6.73047 17.6464V8.44019ZM10.4805 3.44019H25.4805C27.108 3.44019 28.483 4.48893 29.0005 5.94019H6.96047C7.47797 4.48893 8.85297 3.44019 10.4805 3.44019ZM11.7305 30.9402H9.23047V29.5639C9.63427 29.6464 10.053 29.6902 10.4805 29.6902H11.7305V30.9402ZM26.7305 30.9402H24.2305V29.6902H25.4805C25.908 29.6902 26.3268 29.6464 26.7305 29.5639V30.9402ZM25.4805 27.1902H10.4805C8.41297 27.1902 6.73047 25.5077 6.73047 23.4402V20.3327C7.89297 20.7252 9.11667 20.9402 10.3417 20.9402H25.6205C26.8455 20.9402 28.0692 20.7252 29.2317 20.3327V23.4402C29.2317 25.5077 27.548 27.1902 25.4805 27.1902Z" fill="#EB662B"/>
</svg>
