<svg width="40" height="35" viewBox="0 0 40 35" fill="none" xmlns="http://www.w3.org/2000/svg">
<path d="M38.3142 32.2636H34.1992V27.1903C35.2544 26.9213 36.1903 26.3092 36.8598 25.4503C37.5293 24.5914 37.8943 23.5343 37.8975 22.4453V18.662C37.8975 17.358 37.3795 16.1074 36.4574 15.1854C35.5354 14.2633 34.2848 13.7453 32.9808 13.7453C31.6768 13.7453 30.4263 14.2633 29.5042 15.1854C28.5822 16.1074 28.0642 17.358 28.0642 18.662V22.4386C28.0674 23.5162 28.4251 24.5628 29.082 25.417C29.7389 26.2711 30.6586 26.8855 31.6992 27.1653V32.2636H25.0642V6.88863C25.0642 2.83197 22.8558 0.598633 18.8425 0.598633H8.4658C4.4408 0.598633 2.22413 2.83197 2.22413 6.88863V32.2636H1.64746C1.31594 32.2636 0.997999 32.3953 0.763578 32.6298C0.529157 32.8642 0.397461 33.1821 0.397461 33.5136C0.397461 33.8452 0.529157 34.1631 0.763578 34.3975C0.997999 34.6319 1.31594 34.7636 1.64746 34.7636H32.8525C32.8858 34.7636 32.9158 34.782 32.9492 34.782C32.9825 34.782 33.0125 34.7653 33.0458 34.7636H38.3142C38.6457 34.7636 38.9636 34.6319 39.198 34.3975C39.4325 34.1631 39.5642 33.8452 39.5642 33.5136C39.5642 33.1821 39.4325 32.8642 39.198 32.6298C38.9636 32.3953 38.6457 32.2636 38.3142 32.2636ZM22.5642 32.2636H14.9808V27.2636C14.9808 26.9321 14.8491 26.6142 14.6147 26.3798C14.3803 26.1453 14.0623 26.0136 13.7308 26.0136C13.3993 26.0136 13.0814 26.1453 12.8469 26.3798C12.6125 26.6142 12.4808 26.9321 12.4808 27.2636V32.2636H4.72913V6.88863C4.72913 4.23197 5.84913 3.09863 8.4708 3.09863H18.8475C21.4558 3.09863 22.5692 4.23197 22.5692 6.88863L22.5642 32.2636ZM32.9808 24.857C32.34 24.8565 31.7256 24.6018 31.2725 24.1487C30.8194 23.6955 30.5646 23.0811 30.5642 22.4403V18.662C30.5642 18.021 30.8188 17.4063 31.272 16.9531C31.7252 16.4999 32.3399 16.2453 32.9808 16.2453C33.6218 16.2453 34.2365 16.4999 34.6897 16.9531C35.1429 17.4063 35.3975 18.021 35.3975 18.662V22.4386C35.3975 23.0797 35.1429 23.6946 34.6898 24.1481C34.2366 24.6016 33.6219 24.8565 32.9808 24.857ZM19.1475 10.5986C19.1475 10.9302 19.0158 11.2481 18.7814 11.4825C18.547 11.7169 18.229 11.8486 17.8975 11.8486H9.64746C9.47529 11.8627 9.30207 11.841 9.13872 11.7848C8.97538 11.7286 8.82546 11.6391 8.69842 11.522C8.57139 11.405 8.47 11.2629 8.40064 11.1046C8.33129 10.9464 8.29549 10.7756 8.29549 10.6028C8.29549 10.4301 8.33129 10.2592 8.40064 10.101C8.47 9.94279 8.57139 9.80059 8.69842 9.68359C8.82546 9.56649 8.97538 9.47709 9.13872 9.42079C9.30207 9.36459 9.47529 9.34289 9.64746 9.35699H17.8975C18.2276 9.35699 18.5443 9.48749 18.7784 9.72009C19.0126 9.95279 19.1453 10.2686 19.1475 10.5986ZM19.1475 16.847C19.1475 17.1785 19.0158 17.4964 18.7814 17.7309C18.547 17.9653 18.229 18.097 17.8975 18.097H9.64746C9.31594 18.097 8.998 17.9653 8.76358 17.7309C8.52916 17.4964 8.39746 17.1785 8.39746 16.847C8.39746 16.5155 8.52916 16.1975 8.76358 15.9631C8.998 15.7287 9.31594 15.597 9.64746 15.597H17.8975C18.229 15.597 18.547 15.7287 18.7814 15.9631C19.0158 16.1975 19.1475 16.5155 19.1475 16.847Z" fill="#EB662B"/>
</svg>
