<svg width="40" height="37" viewBox="0 0 40 37" fill="none" xmlns="http://www.w3.org/2000/svg">
<path d="M38.3044 34.0353H37.8877V30.2853C37.8868 29.512 37.5792 28.7707 37.0324 28.2239C36.4857 27.6771 35.7443 27.3695 34.971 27.3686H34.5544V18.202H34.971C35.7443 18.2011 36.4857 17.8935 37.0324 17.3467C37.5792 16.7999 37.8868 16.0586 37.8877 15.2853V9.74699C37.8695 9.16859 37.6875 8.60719 37.363 8.12812C37.0385 7.64901 36.5847 7.2718 36.0544 7.0403L21.0544 1.0403C20.3551 0.78279 19.587 0.78279 18.8877 1.0403L3.88769 7.0403C3.35722 7.27163 2.90332 7.6488 2.57878 8.12795C2.25423 8.60709 2.07238 9.16849 2.05436 9.74699V15.2853C2.05524 16.0586 2.36282 16.7999 2.90961 17.3467C3.4564 17.8935 4.19775 18.2011 4.97103 18.202H5.38769V27.3686H4.97103C4.19775 27.3695 3.4564 27.6771 2.90961 28.2239C2.36282 28.7707 2.05524 29.512 2.05436 30.2853V34.0353H1.63769C1.30617 34.0353 0.988233 34.167 0.753812 34.4014C0.519391 34.6358 0.387695 34.9538 0.387695 35.2853C0.387695 35.6168 0.519391 35.9348 0.753812 36.1692C0.988233 36.4036 1.30617 36.5353 1.63769 36.5353H38.3044C38.6359 36.5353 38.9538 36.4036 39.1882 36.1692C39.4227 35.9348 39.5544 35.6168 39.5544 35.2853C39.5544 34.9538 39.4227 34.6358 39.1882 34.4014C38.9538 34.167 38.6359 34.0353 38.3044 34.0353ZM4.97103 15.702C4.86092 15.7007 4.75569 15.6564 4.67783 15.5785C4.59997 15.5006 4.55566 15.3954 4.55436 15.2853V9.74699C4.57013 9.66789 4.60136 9.59279 4.64627 9.52589C4.69118 9.45889 4.74887 9.40149 4.81603 9.35699L19.8044 3.35696C19.8592 3.34569 19.9151 3.34066 19.971 3.34196C20.027 3.34047 20.0829 3.3455 20.1377 3.35696L35.1377 9.35699C35.2716 9.44689 35.3649 9.58569 35.3977 9.74359V15.2853C35.3964 15.3954 35.3521 15.5006 35.2742 15.5785C35.1964 15.6564 35.0911 15.7007 34.981 15.702H4.97103ZM32.0544 18.202V27.3686H27.8877V18.202H32.0544ZM25.3877 18.202V27.3686H21.221V18.202H25.3877ZM18.721 18.202V27.3686H14.5544V18.202H18.721ZM12.0544 18.202V27.3686H7.88769V18.202H12.0544ZM35.3877 34.0353H4.55436V30.2853C4.55436 30.1748 4.59826 30.0688 4.6764 29.9907C4.75454 29.9125 4.86052 29.8686 4.97103 29.8686H34.971C35.0815 29.8686 35.1875 29.9125 35.2657 29.9907C35.3438 30.0688 35.3877 30.1748 35.3877 30.2853V34.0353ZM19.971 6.5353C19.2293 6.5353 18.5043 6.75523 17.8876 7.16729C17.271 7.57934 16.7903 8.16501 16.5065 8.85019C16.2227 9.53549 16.1484 10.2895 16.2931 11.0169C16.4378 11.7443 16.7949 12.4125 17.3194 12.937C17.8438 13.4614 18.512 13.8186 19.2394 13.9633C19.9669 14.1079 20.7209 14.0337 21.4061 13.7499C22.0913 13.466 22.677 12.9854 23.089 12.3687C23.5011 11.752 23.721 11.027 23.721 10.2853C23.7197 9.29119 23.3242 8.33808 22.6212 7.63511C21.9182 6.93213 20.9652 6.53662 19.971 6.5353ZM19.971 11.5353C19.7238 11.5353 19.4821 11.462 19.2766 11.3246C19.071 11.1873 18.9108 10.9921 18.8162 10.7637C18.7216 10.5353 18.6968 10.2839 18.745 10.0414C18.7933 9.79899 18.9123 9.57619 19.0871 9.40139C19.262 9.22659 19.4847 9.10759 19.7272 9.05929C19.9696 9.01109 20.221 9.03579 20.4494 9.13049C20.6778 9.22509 20.873 9.38529 21.0104 9.59079C21.1477 9.79639 21.221 10.0381 21.221 10.2853C21.2201 10.6166 21.0882 10.934 20.8539 11.1682C20.6197 11.4024 20.3023 11.5344 19.971 11.5353Z" fill="#EB662B"/>
</svg>
