<svg width="41" height="38" viewBox="0 0 41 38" fill="none" xmlns="http://www.w3.org/2000/svg">
<path d="M39.7783 34.9969C38.485 34.9969 37.9015 34.7064 37.1628 34.3385C36.8579 34.1867 36.5382 34.0278 36.169 33.8861L40.1272 23.4735C40.4352 22.663 40.3841 21.7563 39.9868 20.9857C39.5896 20.215 38.8806 19.6474 38.0418 19.4282L35.3164 18.7161V10.5421C35.3164 8.82668 33.9207 7.43104 32.2053 7.43104H26.8263V4.40652C26.8263 1.9987 24.8674 0.0397949 22.4596 0.0397949H19.4409C17.0331 0.0397949 15.0742 1.9987 15.0742 4.40652V7.43097H9.6952C7.97973 7.43097 6.58411 8.82658 6.58411 10.5421V18.7161L3.85864 19.4282C3.01981 19.6474 2.31083 20.215 1.91363 20.9857C1.51645 21.7563 1.4652 22.663 1.77332 23.4735L5.73145 33.8863C5.36239 34.0279 5.0427 34.1868 4.73793 34.3386C3.99911 34.7064 3.41559 34.997 2.12208 34.997C1.47488 34.997 0.950195 35.5217 0.950195 36.1689C0.950195 36.8161 1.47488 37.3407 2.12208 37.3407C3.96676 37.3407 4.93145 36.8604 5.78254 36.4367C6.52137 36.0689 7.10489 35.7782 8.3984 35.7782C9.69192 35.7782 10.2754 36.0688 11.0143 36.4367C11.8654 36.8604 12.83 37.3407 14.6747 37.3407C16.5193 37.3407 17.4839 36.8604 18.3351 36.4367C19.0739 36.0689 19.6574 35.7782 20.9507 35.7782C22.2441 35.7782 22.8275 36.0688 23.5663 36.4367C24.4174 36.8604 25.382 37.3407 27.2266 37.3407C29.0712 37.3407 30.0358 36.8604 30.8869 36.4367C31.6257 36.0689 32.2092 35.7782 33.5025 35.7782C34.7959 35.7782 35.3793 36.0688 36.1181 36.4367C36.9692 36.8604 37.9338 37.3407 39.7784 37.3407C40.4256 37.3407 40.9503 36.8161 40.9503 36.1689C40.9503 35.5217 40.4255 34.9969 39.7783 34.9969ZM17.4179 4.40652C17.4179 3.29105 18.3254 2.38354 19.4409 2.38354H22.4596C23.575 2.38354 24.4825 3.29105 24.4825 4.40652V7.43097H17.4179V4.40652ZM8.92778 10.5421C8.92778 10.119 9.272 9.77479 9.69512 9.77479H32.2052C32.6283 9.77479 32.9725 10.119 32.9725 10.5421V18.1038L21.2464 15.0399C21.0522 14.9892 20.8481 14.9892 20.6539 15.0399L8.9277 18.1038L8.92778 10.5421ZM29.8422 34.3386C29.1034 34.7064 28.5199 34.9969 27.2266 34.9969C25.9333 34.9969 25.3498 34.7064 24.6111 34.3385C23.76 33.9147 22.7954 33.4344 20.9507 33.4344C19.1061 33.4344 18.1415 33.9147 17.2904 34.3385C16.5516 34.7063 15.9681 34.9969 14.6747 34.9969C13.3813 34.9969 12.7977 34.7064 12.059 34.3385C11.2079 33.9147 10.2432 33.4344 8.39848 33.4344C8.28543 33.4344 8.17575 33.4363 8.06911 33.4397L3.96403 22.6407C3.86551 22.3815 3.94231 22.1654 3.99684 22.0596C4.05137 21.9539 4.18286 21.766 4.45106 21.6959L20.9502 17.3849L37.4493 21.696C37.7175 21.766 37.849 21.9539 37.9036 22.0596C37.9581 22.1654 38.0349 22.3815 37.9364 22.6407L33.8314 33.4398C33.7249 33.4364 33.6154 33.4345 33.5025 33.4345C31.6579 33.4344 30.6932 33.9148 29.8422 34.3386Z" fill="#EB662B"/>
</svg>
