<svg width="51" height="51" viewBox="0 0 51 51" fill="none" xmlns="http://www.w3.org/2000/svg">
<g clip-path="url(#clip0_4107_1275)">
<path fill-rule="evenodd" clip-rule="evenodd" d="M24.6592 46.6C24.9448 47.0547 25.4448 47.3319 25.9825 47.3319C26.5202 47.3319 27.0202 47.0547 27.3058 46.6C31.535 39.8569 44.6134 19.0033 47.6152 14.2169C47.9815 13.6323 47.9213 12.8765 47.4662 12.3568C45.7449 10.3922 41.6157 5.67714 40.224 4.08801C39.9271 3.75054 39.4986 3.55566 39.0486 3.55566C35.1929 3.55566 16.7721 3.55566 12.9164 3.55566C12.4664 3.55566 12.0379 3.75054 11.741 4.08801C10.3493 5.67714 6.22007 10.3922 4.4988 12.3568C4.04374 12.8765 3.98354 13.6323 4.34984 14.2169C7.35159 19.0033 20.43 39.8569 24.6592 46.6Z" fill="#FDF0EA"/>
<path fill-rule="evenodd" clip-rule="evenodd" d="M4.17871 13.2463H47.8068C47.7432 13.0379 47.6359 12.8409 47.4858 12.669C45.7641 10.7045 41.6318 5.98858 40.2395 4.39924C39.9435 4.06053 39.5141 3.8667 39.0639 3.8667C35.2078 3.8667 16.7778 3.8667 12.9217 3.8667C12.4714 3.8667 12.0421 4.06053 11.7461 4.39924C10.3537 5.98858 6.22139 10.7045 4.4997 12.669C4.34963 12.8409 4.24228 13.0379 4.17871 13.2463Z" fill="white"/>
<path fill-rule="evenodd" clip-rule="evenodd" d="M19.74 13.2463L25.9932 3.8667H12.922C12.773 3.8667 12.6261 3.88754 12.4854 3.92923L19.74 13.2463ZM25.9932 3.8667L32.2463 13.2463L39.5009 3.92923C39.3603 3.88754 39.2133 3.8667 39.0643 3.8667H25.9932Z" fill="#FDF0EA"/>
<path fill-rule="evenodd" clip-rule="evenodd" d="M32.2464 13.2463H19.7402L25.9933 3.8667L32.2464 13.2463Z" fill="white"/>
<path fill-rule="evenodd" clip-rule="evenodd" d="M25.9933 47.651L19.7402 13.2463H32.2464L25.9933 47.651Z" fill="white"/>
<path fill-rule="evenodd" clip-rule="evenodd" d="M13.4844 41.4165L14.7184 43.3098L16.6116 44.5437L14.7184 45.7766L13.4844 47.6698L12.2516 45.7766L10.3584 44.5437L12.2516 43.3098L13.4844 41.4165Z" fill="#FDF0EA"/>
<path fill-rule="evenodd" clip-rule="evenodd" d="M7.2345 28.9165L8.46848 30.8098L10.3617 32.0437L8.46848 33.2766L7.2345 35.1698L6.00161 33.2766L4.1084 32.0437L6.00161 30.8098L7.2345 28.9165Z" fill="#FDF0EA"/>
<path fill-rule="evenodd" clip-rule="evenodd" d="M43.6925 34.1245L44.9265 36.0177L46.8197 37.2517L44.9265 38.4846L43.6925 40.3778L42.4596 38.4846L40.5664 37.2517L42.4596 36.0177L43.6925 34.1245Z" fill="#FDF0EA"/>
<path d="M20.259 40.7104C20.8346 40.7104 21.3012 40.2438 21.3012 39.6682C21.3012 39.0926 20.8346 38.626 20.259 38.626C19.6834 38.626 19.2168 39.0926 19.2168 39.6682C19.2168 40.2438 19.6834 40.7104 20.259 40.7104Z" fill="#EB662B"/>
<path fill-rule="evenodd" clip-rule="evenodd" d="M5.42994 14.2885H18.8773L24.7417 45.0737L22.9116 42.1566C22.6063 41.6689 21.9622 41.522 21.4755 41.8273C20.9877 42.1327 20.8408 42.7767 21.1462 43.2634C21.1462 43.2634 23.1076 46.391 23.786 47.4728C24.2623 48.2326 25.096 48.6932 25.9934 48.6932C26.8907 48.6932 27.7244 48.2326 28.2007 47.4728L48.5182 15.0837C49.1299 14.1093 49.0288 12.8482 48.2701 11.9822C46.5484 10.0176 42.4172 5.30172 41.0248 3.71239C40.5298 3.14856 39.8159 2.82446 39.0645 2.82446H12.9223C12.1708 2.82446 11.4569 3.14856 10.9619 3.71239C9.56951 5.30172 5.43828 10.0176 3.71658 11.9822C2.95787 12.8482 2.85678 14.1093 3.46854 15.0837L17.6996 37.7701C18.006 38.2578 18.6491 38.4047 19.1368 38.0994C19.6235 37.794 19.7715 37.15 19.4661 36.6633L5.42994 14.2885ZM45.6938 12.2042L39.7023 5.36635L34.3788 12.2042H41.6262C42.2015 12.2042 42.6684 12.6711 42.6684 13.2464C42.6684 13.8216 42.2015 14.2885 41.6262 14.2885H33.1094L27.245 45.0737L46.5568 14.2885H44.7527C44.1775 14.2885 43.7106 13.8216 43.7106 13.2464C43.7106 12.6711 44.1775 12.2042 44.7527 12.2042H45.6938ZM30.9875 14.2885H20.9992L25.9934 40.5058L30.9875 14.2885ZM6.29287 12.2042H17.6079L12.2844 5.36635L6.29287 12.2042ZM21.6881 12.2042H30.2986L25.9934 5.74572L21.6881 12.2042ZM37.4168 4.90883H27.9412L32.3122 11.4652L37.4168 4.90883ZM24.0455 4.90883H14.57L19.6746 11.4652L24.0455 4.90883Z" fill="#EB662B"/>
<path fill-rule="evenodd" clip-rule="evenodd" d="M14.3577 40.8473C14.1658 40.5522 13.8378 40.3745 13.4846 40.3745C13.1325 40.3745 12.8046 40.5522 12.6115 40.8473L11.4982 42.5562L9.78928 43.6707C9.49422 43.8626 9.31543 44.1906 9.31543 44.5438C9.31543 44.8959 9.49422 45.2238 9.78928 45.4169L11.4982 46.5302L12.6115 48.2392C12.8046 48.5342 13.1325 48.713 13.4846 48.713C13.8378 48.713 14.1658 48.5342 14.3577 48.2392L15.4722 46.5302L17.1811 45.4169C17.4762 45.2238 17.6538 44.8959 17.6538 44.5438C17.6538 44.1906 17.4762 43.8626 17.1811 43.6707L15.4722 42.5562L14.3577 40.8473ZM13.4846 43.3251L13.8455 43.8791C13.9245 43.9997 14.0287 44.1039 14.1493 44.1829L14.7033 44.5438L14.1493 44.9035C14.0287 44.9825 13.9245 45.0867 13.8455 45.2085L13.4846 45.7613L13.1248 45.2085C13.0459 45.0867 12.9417 44.9825 12.8199 44.9035L12.2671 44.5438L12.8199 44.1829C12.9417 44.1039 13.0459 43.9997 13.1248 43.8791L13.4846 43.3251Z" fill="#EB662B"/>
<path fill-rule="evenodd" clip-rule="evenodd" d="M8.10776 28.3473C7.91581 28.0522 7.58785 27.8745 7.23465 27.8745C6.88256 27.8745 6.55459 28.0522 6.36154 28.3473L5.24821 30.0562L3.53928 31.1707C3.24422 31.3626 3.06543 31.6906 3.06543 32.0438C3.06543 32.3959 3.24422 32.7238 3.53928 32.9169L5.24821 34.0302L6.36154 35.7392C6.55459 36.0342 6.88256 36.213 7.23465 36.213C7.58785 36.213 7.91581 36.0342 8.10776 35.7392L9.22219 34.0302L10.9311 32.9169C11.2262 32.7238 11.4038 32.3959 11.4038 32.0438C11.4038 31.6906 11.2262 31.3626 10.9311 31.1707L9.22219 30.0562L8.10776 28.3473ZM7.23465 30.8251L7.59552 31.3791C7.6745 31.4997 7.7787 31.6039 7.89936 31.6829L8.45328 32.0438L7.89936 32.4035C7.7787 32.4825 7.6745 32.5867 7.59552 32.7085L7.23465 33.2613L6.87488 32.7085C6.7959 32.5867 6.6917 32.4825 6.56995 32.4035L6.01712 32.0438L6.56995 31.6829C6.6917 31.6039 6.7959 31.4997 6.87488 31.3791L7.23465 30.8251Z" fill="#EB662B"/>
<path fill-rule="evenodd" clip-rule="evenodd" d="M44.5658 33.5551C44.3738 33.26 44.0458 33.0823 43.6926 33.0823C43.3405 33.0823 43.0126 33.26 42.8195 33.5551L41.7062 35.264L39.9973 36.3784C39.7022 36.5704 39.5234 36.8984 39.5234 37.2516C39.5234 37.6037 39.7022 37.9316 39.9973 38.1247L41.7062 39.238L42.8195 40.9469C43.0126 41.242 43.3405 41.4208 43.6926 41.4208C44.0458 41.4208 44.3738 41.242 44.5658 40.9469L45.6802 39.238L47.3891 38.1247C47.6842 37.9316 47.8619 37.6037 47.8619 37.2516C47.8619 36.8984 47.6842 36.5704 47.3891 36.3784L45.6802 35.264L44.5658 33.5551ZM43.6926 36.0329L44.0535 36.5868C44.1325 36.7075 44.2367 36.8117 44.3574 36.8907L44.9113 37.2516L44.3574 37.6113C44.2367 37.6903 44.1325 37.7945 44.0535 37.9163L43.6926 38.4691L43.3329 37.9163C43.2539 37.7945 43.1497 37.6903 43.0279 37.6113L42.4751 37.2516L43.0279 36.8907C43.1497 36.8117 43.2539 36.7075 43.3329 36.5868L43.6926 36.0329Z" fill="#EB662B"/>
</g>
<defs>
<clipPath id="clip0_4107_1275">
<rect width="50" height="50" fill="white" transform="translate(0.980469 0.590088)"/>
</clipPath>
</defs>
</svg>
