<svg width="81" height="81" viewBox="0 0 81 81" fill="none" xmlns="http://www.w3.org/2000/svg">
<rect x="0.950195" y="0.0900879" width="80" height="80" rx="40" fill="#FEF7F4"/>
<g clip-path="url(#clip0_4107_1095)">
<g clip-path="url(#clip1_4107_1095)">
<g clip-path="url(#clip2_4107_1095)">
<mask id="mask0_4107_1095" style="mask-type:luminance" maskUnits="userSpaceOnUse" x="20" y="19" width="41" height="41">
<path d="M60.9502 19.6902H20.9502V59.6902H60.9502V19.6902Z" fill="white"/>
</mask>
<g mask="url(#mask0_4107_1095)">
<path d="M59.7783 55.9969C58.485 55.9969 57.9015 55.7064 57.1628 55.3385C56.8579 55.1867 56.5382 55.0278 56.169 54.8861L60.1272 44.4735C60.4352 43.663 60.3841 42.7563 59.9868 41.9857C59.5896 41.215 58.8806 40.6474 58.0418 40.4282L55.3164 39.7161V31.5421C55.3164 29.8267 53.9207 28.431 52.2053 28.431H46.8263V25.4065C46.8263 22.9987 44.8674 21.0398 42.4596 21.0398H39.4409C37.0331 21.0398 35.0742 22.9987 35.0742 25.4065V28.431H29.6952C27.9797 28.431 26.5841 29.8266 26.5841 31.5421V39.7161L23.8586 40.4282C23.0198 40.6474 22.3108 41.215 21.9136 41.9857C21.5164 42.7563 21.4652 43.663 21.7733 44.4735L25.7314 54.8863C25.3624 55.0279 25.0427 55.1868 24.7379 55.3386C23.9991 55.7064 23.4156 55.997 22.1221 55.997C21.4749 55.997 20.9502 56.5217 20.9502 57.1689C20.9502 57.8161 21.4749 58.3407 22.1221 58.3407C23.9668 58.3407 24.9314 57.8604 25.7825 57.4367C26.5214 57.0689 27.1049 56.7782 28.3984 56.7782C29.6919 56.7782 30.2754 57.0688 31.0143 57.4367C31.8654 57.8604 32.83 58.3407 34.6747 58.3407C36.5193 58.3407 37.4839 57.8604 38.3351 57.4367C39.0739 57.0689 39.6574 56.7782 40.9507 56.7782C42.2441 56.7782 42.8275 57.0688 43.5663 57.4367C44.4174 57.8604 45.382 58.3407 47.2266 58.3407C49.0712 58.3407 50.0358 57.8604 50.8869 57.4367C51.6257 57.0689 52.2092 56.7782 53.5025 56.7782C54.7959 56.7782 55.3793 57.0688 56.1181 57.4367C56.9692 57.8604 57.9338 58.3407 59.7784 58.3407C60.4256 58.3407 60.9503 57.8161 60.9503 57.1689C60.9503 56.5217 60.4255 55.9969 59.7783 55.9969ZM37.4179 25.4065C37.4179 24.291 38.3254 23.3835 39.4409 23.3835H42.4596C43.575 23.3835 44.4825 24.291 44.4825 25.4065V28.431H37.4179V25.4065ZM28.9278 31.5421C28.9278 31.119 29.272 30.7748 29.6951 30.7748H52.2052C52.6283 30.7748 52.9725 31.119 52.9725 31.5421V39.1038L41.2464 36.0399C41.0522 35.9892 40.8481 35.9892 40.6539 36.0399L28.9277 39.1038L28.9278 31.5421ZM49.8422 55.3386C49.1034 55.7064 48.5199 55.9969 47.2266 55.9969C45.9333 55.9969 45.3498 55.7064 44.6111 55.3385C43.76 54.9147 42.7954 54.4344 40.9507 54.4344C39.1061 54.4344 38.1415 54.9147 37.2904 55.3385C36.5516 55.7063 35.9681 55.9969 34.6747 55.9969C33.3813 55.9969 32.7977 55.7064 32.059 55.3385C31.2079 54.9147 30.2432 54.4344 28.3985 54.4344C28.2854 54.4344 28.1757 54.4363 28.0691 54.4397L23.964 43.6407C23.8655 43.3815 23.9423 43.1654 23.9968 43.0596C24.0514 42.9539 24.1829 42.766 24.4511 42.6959L40.9502 38.3849L57.4493 42.696C57.7175 42.766 57.849 42.9539 57.9036 43.0596C57.9581 43.1654 58.0349 43.3815 57.9364 43.6407L53.8314 54.4398C53.7249 54.4364 53.6154 54.4345 53.5025 54.4345C51.6579 54.4344 50.6932 54.9148 49.8422 55.3386Z" fill="#EB662B"/>
<path d="M51.7844 44.3821L41.2465 41.6286C41.0523 41.5779 40.8483 41.5779 40.654 41.6286L30.1162 44.3821C29.49 44.5456 29.115 45.186 29.2786 45.8121C29.4422 46.4383 30.0825 46.8132 30.7087 46.6497L40.9503 43.9737L51.1919 46.6497C51.2912 46.6757 51.3909 46.6881 51.489 46.6881C52.0092 46.6881 52.4844 46.339 52.6219 45.8121C52.7856 45.186 52.4106 44.5456 51.7844 44.3821Z" fill="#EB662B"/>
</g>
</g>
</g>
</g>
<defs>
<clipPath id="clip0_4107_1095">
<rect width="40" height="41" fill="white" transform="translate(20.9502 19.5901)"/>
</clipPath>
<clipPath id="clip1_4107_1095">
<rect width="40" height="41" fill="white" transform="translate(20.9502 19.5901)"/>
</clipPath>
<clipPath id="clip2_4107_1095">
<rect width="40" height="41" fill="white" transform="translate(20.9502 19.5901)"/>
</clipPath>
</defs>
</svg>
