<svg width="81" height="81" viewBox="0 0 81 81" fill="none" xmlns="http://www.w3.org/2000/svg">
<rect x="0.980469" y="0.590088" width="80" height="80" rx="40" fill="#FEF7F4"/>
<g clip-path="url(#clip0_4107_1109)">
<g clip-path="url(#clip1_4107_1109)">
<path d="M55.3555 31.4402H54.7305V30.1902C54.7305 26.7439 51.9268 23.9402 48.4805 23.9402H33.4805C30.0342 23.9402 27.2305 26.7439 27.2305 30.1902V31.4402H26.6055C24.8817 31.4402 23.4805 32.8427 23.4805 34.5652V37.6902C23.4805 38.3802 24.0392 38.9402 24.7305 38.9402C25.4217 38.9402 25.9805 38.3802 25.9805 37.6902V34.5652C25.9805 34.2202 26.2617 33.9402 26.6055 33.9402H27.2305V46.4402C27.2305 48.4739 28.2217 50.2664 29.7305 51.4077V53.9402C29.7305 55.3189 30.8517 56.4402 32.2305 56.4402H34.7305C36.1092 56.4402 37.2305 55.3189 37.2305 53.9402V52.6902H44.7305V53.9402C44.7305 55.3189 45.8518 56.4402 47.2305 56.4402H49.7305C51.1092 56.4402 52.2305 55.3189 52.2305 53.9402V51.4077C53.7393 50.2652 54.7305 48.4727 54.7305 46.4402V33.9402H55.3555C55.6993 33.9402 55.9805 34.2202 55.9805 34.5652V37.6902C55.9805 38.3802 56.5393 38.9402 57.2305 38.9402C57.9217 38.9402 58.4805 38.3802 58.4805 37.6902V34.5652C58.4805 32.8427 57.0793 31.4402 55.3555 31.4402ZM29.7305 31.4402H52.2305V40.6464C51.0992 41.1589 49.8618 41.4402 48.6193 41.4402H33.3417C32.1005 41.4402 30.8617 41.1589 29.7305 40.6464V31.4402ZM33.4805 26.4402H48.4805C50.108 26.4402 51.483 27.4889 52.0005 28.9402H29.9605C30.478 27.4889 31.853 26.4402 33.4805 26.4402ZM34.7305 53.9402H32.2305V52.5639C32.6343 52.6464 33.053 52.6902 33.4805 52.6902H34.7305V53.9402ZM49.7305 53.9402H47.2305V52.6902H48.4805C48.908 52.6902 49.3268 52.6464 49.7305 52.5639V53.9402ZM48.4805 50.1902H33.4805C31.413 50.1902 29.7305 48.5077 29.7305 46.4402V43.3327C30.893 43.7252 32.1167 43.9402 33.3417 43.9402H48.6205C49.8455 43.9402 51.0692 43.7252 52.2317 43.3327V46.4402C52.2317 48.5077 50.548 50.1902 48.4805 50.1902Z" fill="#EB662B"/>
<path d="M33.4805 47.6902C34.1709 47.6902 34.7305 47.1306 34.7305 46.4402C34.7305 45.7498 34.1709 45.1902 33.4805 45.1902C32.7901 45.1902 32.2305 45.7498 32.2305 46.4402C32.2305 47.1306 32.7901 47.6902 33.4805 47.6902Z" fill="#EB662B"/>
<path d="M48.4805 47.6902C49.1709 47.6902 49.7305 47.1306 49.7305 46.4402C49.7305 45.7498 49.1709 45.1902 48.4805 45.1902C47.7901 45.1902 47.2305 45.7498 47.2305 46.4402C47.2305 47.1306 47.7901 47.6902 48.4805 47.6902Z" fill="#EB662B"/>
</g>
</g>
<defs>
<clipPath id="clip0_4107_1109">
<rect width="40" height="41" fill="white" transform="translate(20.9805 20.0901)"/>
</clipPath>
<clipPath id="clip1_4107_1109">
<rect width="40" height="41" fill="white" transform="translate(20.9805 20.0901)"/>
</clipPath>
</defs>
</svg>
