<svg width="81" height="81" viewBox="0 0 81 81" fill="none" xmlns="http://www.w3.org/2000/svg">
<rect x="0.980469" y="0.0900879" width="80" height="80" rx="40" fill="#FEF7F4"/>
<g clip-path="url(#clip0_4107_1077)">
<g clip-path="url(#clip1_4107_1077)">
<g clip-path="url(#clip2_4107_1077)">
<path d="M59.3142 54.2636H55.1992V49.1903C56.2544 48.9213 57.1903 48.3092 57.8598 47.4503C58.5293 46.5914 58.8943 45.5343 58.8975 44.4453V40.662C58.8975 39.358 58.3795 38.1074 57.4574 37.1854C56.5354 36.2633 55.2848 35.7453 53.9808 35.7453C52.6768 35.7453 51.4263 36.2633 50.5042 37.1854C49.5822 38.1074 49.0642 39.358 49.0642 40.662V44.4386C49.0674 45.5162 49.4251 46.5628 50.082 47.417C50.7389 48.2711 51.6586 48.8855 52.6992 49.1653V54.2636H46.0642V28.8886C46.0642 24.832 43.8558 22.5986 39.8425 22.5986H29.4658C25.4408 22.5986 23.2241 24.832 23.2241 28.8886V54.2636H22.6475C22.3159 54.2636 21.998 54.3953 21.7636 54.6298C21.5292 54.8642 21.3975 55.1821 21.3975 55.5136C21.3975 55.8452 21.5292 56.1631 21.7636 56.3975C21.998 56.6319 22.3159 56.7636 22.6475 56.7636H53.8525C53.8858 56.7636 53.9158 56.782 53.9492 56.782C53.9825 56.782 54.0125 56.7653 54.0458 56.7636H59.3142C59.6457 56.7636 59.9636 56.6319 60.198 56.3975C60.4325 56.1631 60.5642 55.8452 60.5642 55.5136C60.5642 55.1821 60.4325 54.8642 60.198 54.6298C59.9636 54.3953 59.6457 54.2636 59.3142 54.2636ZM43.5642 54.2636H35.9808V49.2636C35.9808 48.9321 35.8491 48.6142 35.6147 48.3798C35.3803 48.1453 35.0623 48.0136 34.7308 48.0136C34.3993 48.0136 34.0814 48.1453 33.8469 48.3798C33.6125 48.6142 33.4808 48.9321 33.4808 49.2636V54.2636H25.7291V28.8886C25.7291 26.232 26.8491 25.0986 29.4708 25.0986H39.8475C42.4558 25.0986 43.5692 26.232 43.5692 28.8886L43.5642 54.2636ZM53.9808 46.857C53.34 46.8565 52.7256 46.6018 52.2725 46.1487C51.8194 45.6955 51.5646 45.0811 51.5642 44.4403V40.662C51.5642 40.021 51.8188 39.4063 52.272 38.9531C52.7252 38.4999 53.3399 38.2453 53.9808 38.2453C54.6218 38.2453 55.2365 38.4999 55.6897 38.9531C56.1429 39.4063 56.3975 40.021 56.3975 40.662V44.4386C56.3975 45.0797 56.1429 45.6946 55.6898 46.1481C55.2366 46.6016 54.6219 46.8565 53.9808 46.857ZM40.1475 32.5986C40.1475 32.9302 40.0158 33.2481 39.7814 33.4825C39.547 33.7169 39.229 33.8486 38.8975 33.8486H30.6475C30.4753 33.8627 30.3021 33.841 30.1387 33.7848C29.9754 33.7286 29.8255 33.6391 29.6984 33.522C29.5714 33.405 29.47 33.2629 29.4006 33.1046C29.3313 32.9464 29.2955 32.7756 29.2955 32.6028C29.2955 32.4301 29.3313 32.2592 29.4006 32.101C29.47 31.9428 29.5714 31.8006 29.6984 31.6836C29.8255 31.5665 29.9754 31.4771 30.1387 31.4208C30.3021 31.3646 30.4753 31.3429 30.6475 31.357H38.8975C39.2276 31.357 39.5443 31.4875 39.7784 31.7201C40.0126 31.9528 40.1453 32.2686 40.1475 32.5986ZM40.1475 38.847C40.1475 39.1785 40.0158 39.4964 39.7814 39.7309C39.547 39.9653 39.229 40.097 38.8975 40.097H30.6475C30.3159 40.097 29.998 39.9653 29.7636 39.7309C29.5292 39.4964 29.3975 39.1785 29.3975 38.847C29.3975 38.5155 29.5292 38.1975 29.7636 37.9631C29.998 37.7287 30.3159 37.597 30.6475 37.597H38.8975C39.229 37.597 39.547 37.7287 39.7814 37.9631C40.0158 38.1975 40.1475 38.5155 40.1475 38.847Z" fill="#EB662B"/>
</g>
</g>
</g>
<defs>
<clipPath id="clip0_4107_1077">
<rect width="40" height="41" fill="white" transform="translate(20.9805 19.5901)"/>
</clipPath>
<clipPath id="clip1_4107_1077">
<rect width="40" height="41" fill="white" transform="translate(20.9805 19.5901)"/>
</clipPath>
<clipPath id="clip2_4107_1077">
<rect width="40" height="41" fill="white" transform="translate(20.9805 19.5901)"/>
</clipPath>
</defs>
</svg>
