<svg width="81" height="81" viewBox="0 0 81 81" fill="none" xmlns="http://www.w3.org/2000/svg">
<rect x="0.950195" y="0.590088" width="80" height="80" rx="40" fill="#FEF7F4"/>
<g clip-path="url(#clip0_4107_1133)">
<g clip-path="url(#clip1_4107_1133)">
<g clip-path="url(#clip2_4107_1133)">
<mask id="mask0_4107_1133" style="mask-type:luminance" maskUnits="userSpaceOnUse" x="20" y="20" width="41" height="41">
<path d="M60.9502 20.1902H20.9502V60.1902H60.9502V20.1902Z" fill="white"/>
</mask>
<g mask="url(#mask0_4107_1133)">
<path d="M52.8643 27.6124H50.9111V22.9238C50.9111 22.049 50.4879 21.2208 49.7791 20.7082C49.0703 20.1956 48.1511 20.053 47.3203 20.3271L28.1796 26.6401C27.0564 27.0106 26.3018 28.0542 26.3018 29.2369V51.0756V57.4558C26.3018 58.9635 27.5284 60.1902 29.0361 60.1902H52.8643C54.372 60.1902 55.5986 58.9635 55.5986 57.4558V30.3468C55.5986 28.8391 54.372 27.6124 52.8643 27.6124ZM53.2549 57.4558C53.2549 57.6712 53.0797 57.8464 52.8643 57.8464H29.0361C28.8207 57.8464 28.6455 57.6712 28.6455 57.4558V49.9038V30.3468C28.6455 30.1314 28.8207 29.9562 29.0361 29.9562H52.8643C53.0797 29.9562 53.2549 30.1314 53.2549 30.3468V57.4558ZM48.0544 22.5529C48.2194 22.4985 48.3453 22.5637 48.4057 22.6073C48.4661 22.651 48.5675 22.7501 48.5675 22.9238V27.6125H32.7141L48.0544 22.5529Z" fill="#EB662B"/>
<path d="M33.1377 43.509H34.5582H48.7627C49.4099 43.509 49.9346 42.9843 49.9346 42.3371C49.9346 41.6899 49.4099 41.1652 48.7627 41.1652H48.4232C47.9181 37.931 45.3563 35.3692 42.1221 34.8641V34.2769C42.1221 33.6297 41.5974 33.105 40.9502 33.105C40.303 33.105 39.7783 33.6297 39.7783 34.2769V34.8641C36.5441 35.3692 33.9823 37.931 33.4772 41.1652H33.1377C32.4905 41.1652 31.9658 41.6899 31.9658 42.3371C31.9658 42.9843 32.4905 43.509 33.1377 43.509ZM40.9502 37.1169C43.4258 37.1169 45.5044 38.8493 46.0378 41.1652H35.8626C36.396 38.8493 38.4747 37.1169 40.9502 37.1169Z" fill="#EB662B"/>
<path d="M33.5918 46.675C32.9446 46.675 32.4199 47.1996 32.4199 47.8468C32.4199 48.494 32.9446 49.0187 33.5918 49.0187H39.2168C39.864 49.0187 40.3887 48.494 40.3887 47.8468C40.3887 47.1996 39.864 46.675 39.2168 46.675H33.5918Z" fill="#EB662B"/>
<path d="M48.4697 51.3625H33.4307C32.7835 51.3625 32.2588 51.8872 32.2588 52.5344C32.2588 53.1816 32.7835 53.7062 33.4307 53.7062H48.4697C49.1169 53.7062 49.6416 53.1816 49.6416 52.5344C49.6416 51.8872 49.1169 51.3625 48.4697 51.3625Z" fill="#EB662B"/>
</g>
</g>
</g>
</g>
<defs>
<clipPath id="clip0_4107_1133">
<rect width="40" height="41" fill="white" transform="translate(20.9502 20.0901)"/>
</clipPath>
<clipPath id="clip1_4107_1133">
<rect width="40" height="41" fill="white" transform="translate(20.9502 20.0901)"/>
</clipPath>
<clipPath id="clip2_4107_1133">
<rect width="40" height="41" fill="white" transform="translate(20.9502 20.0901)"/>
</clipPath>
</defs>
</svg>
