<svg width="81" height="81" viewBox="0 0 81 81" fill="none" xmlns="http://www.w3.org/2000/svg">
<rect x="0.970703" y="0.0900879" width="80" height="80" rx="40" fill="#FEF7F4"/>
<g clip-path="url(#clip0_4107_1086)">
<g clip-path="url(#clip1_4107_1086)">
<g clip-path="url(#clip2_4107_1086)">
<path d="M59.3044 55.0353H58.8877V51.2853C58.8868 50.512 58.5792 49.7707 58.0324 49.2239C57.4857 48.6771 56.7443 48.3695 55.971 48.3686H55.5544V39.202H55.971C56.7443 39.2011 57.4857 38.8935 58.0324 38.3467C58.5792 37.7999 58.8868 37.0586 58.8877 36.2853V30.747C58.8695 30.1686 58.6875 29.6072 58.363 29.1281C58.0385 28.649 57.5847 28.2718 57.0544 28.0403L42.0544 22.0403C41.3551 21.7828 40.587 21.7828 39.8877 22.0403L24.8877 28.0403C24.3572 28.2716 23.9033 28.6488 23.5788 29.128C23.2542 29.6071 23.0724 30.1685 23.0544 30.747V36.2853C23.0552 37.0586 23.3628 37.7999 23.9096 38.3467C24.4564 38.8935 25.1978 39.2011 25.971 39.202H26.3877V48.3686H25.971C25.1978 48.3695 24.4564 48.6771 23.9096 49.2239C23.3628 49.7707 23.0552 50.512 23.0544 51.2853V55.0353H22.6377C22.3062 55.0353 21.9882 55.167 21.7538 55.4014C21.5194 55.6358 21.3877 55.9538 21.3877 56.2853C21.3877 56.6168 21.5194 56.9348 21.7538 57.1692C21.9882 57.4036 22.3062 57.5353 22.6377 57.5353H59.3044C59.6359 57.5353 59.9538 57.4036 60.1882 57.1692C60.4227 56.9348 60.5544 56.6168 60.5544 56.2853C60.5544 55.9538 60.4227 55.6358 60.1882 55.4014C59.9538 55.167 59.6359 55.0353 59.3044 55.0353ZM25.971 36.702C25.8609 36.7007 25.7557 36.6564 25.6778 36.5785C25.6 36.5006 25.5557 36.3954 25.5544 36.2853V30.747C25.5701 30.6679 25.6014 30.5928 25.6463 30.5259C25.6912 30.4589 25.7489 30.4015 25.816 30.357L40.8044 24.357C40.8592 24.3457 40.9151 24.3407 40.971 24.342C41.027 24.3405 41.0829 24.3455 41.1377 24.357L56.1377 30.357C56.2716 30.4469 56.3649 30.5857 56.3977 30.7436V36.2853C56.3964 36.3954 56.3521 36.5006 56.2742 36.5785C56.1964 36.6564 56.0911 36.7007 55.981 36.702H25.971ZM53.0544 39.202V48.3686H48.8877V39.202H53.0544ZM46.3877 39.202V48.3686H42.221V39.202H46.3877ZM39.721 39.202V48.3686H35.5544V39.202H39.721ZM33.0544 39.202V48.3686H28.8877V39.202H33.0544ZM56.3877 55.0353H25.5544V51.2853C25.5544 51.1748 25.5983 51.0688 25.6764 50.9907C25.7545 50.9125 25.8605 50.8686 25.971 50.8686H55.971C56.0815 50.8686 56.1875 50.9125 56.2657 50.9907C56.3438 51.0688 56.3877 51.1748 56.3877 51.2853V55.0353ZM40.971 27.5353C40.2293 27.5353 39.5043 27.7552 38.8876 28.1673C38.271 28.5793 37.7903 29.165 37.5065 29.8502C37.2227 30.5355 37.1484 31.2895 37.2931 32.0169C37.4378 32.7443 37.7949 33.4125 38.3194 33.937C38.8438 34.4614 39.512 34.8186 40.2394 34.9633C40.9669 35.1079 41.7209 35.0337 42.4061 34.7499C43.0913 34.466 43.677 33.9854 44.089 33.3687C44.5011 32.752 44.721 32.027 44.721 31.2853C44.7197 30.2912 44.3242 29.3381 43.6212 28.6351C42.9182 27.9321 41.9652 27.5366 40.971 27.5353ZM40.971 32.5353C40.7238 32.5353 40.4821 32.462 40.2766 32.3246C40.071 32.1873 39.9108 31.9921 39.8162 31.7637C39.7216 31.5353 39.6968 31.2839 39.745 31.0414C39.7933 30.799 39.9123 30.5762 40.0871 30.4014C40.262 30.2266 40.4847 30.1076 40.7272 30.0593C40.9696 30.0111 41.221 30.0358 41.4494 30.1305C41.6778 30.2251 41.873 30.3853 42.0104 30.5908C42.1477 30.7964 42.221 31.0381 42.221 31.2853C42.2201 31.6166 42.0882 31.934 41.8539 32.1682C41.6197 32.4024 41.3023 32.5344 40.971 32.5353Z" fill="#EB662B"/>
</g>
</g>
</g>
<defs>
<clipPath id="clip0_4107_1086">
<rect width="40" height="41" fill="white" transform="translate(20.9707 19.5901)"/>
</clipPath>
<clipPath id="clip1_4107_1086">
<rect width="40" height="41" fill="white" transform="translate(20.9707 19.5901)"/>
</clipPath>
<clipPath id="clip2_4107_1086">
<rect width="40" height="41" fill="white" transform="translate(20.9707 19.5901)"/>
</clipPath>
</defs>
</svg>
