<svg width="81" height="81" viewBox="0 0 81 81" fill="none" xmlns="http://www.w3.org/2000/svg">
<rect x="0.970703" y="0.590088" width="80" height="80" rx="40" fill="#FEF7F4"/>
<g clip-path="url(#clip0_4107_1120)">
<g clip-path="url(#clip1_4107_1120)">
<g clip-path="url(#clip2_4107_1120)">
<mask id="mask0_4107_1120" style="mask-type:luminance" maskUnits="userSpaceOnUse" x="20" y="20" width="41" height="41">
<path d="M60.9707 20.1902H20.9707V60.1902H60.9707V20.1902Z" fill="white"/>
</mask>
<g mask="url(#mask0_4107_1120)">
<path d="M59.7988 57.7684H58.1012L54.9095 51.385C54.711 50.988 54.3052 50.7372 53.8613 50.7372H46.2548L40.7826 34.4055L53.0074 30.3189C53.7073 30.0849 54.0207 29.2675 53.6528 28.6251C50.5001 23.119 44.0155 20.2422 36.7059 22.2133L36.3234 21.0688C36.1182 20.455 35.4544 20.1236 34.8404 20.3289C34.2266 20.5341 33.8953 21.198 34.1005 21.8118L34.4831 22.9564C27.4661 25.7738 24.0056 31.9669 24.7991 38.2707C24.8918 39.0072 25.6352 39.4688 26.3334 39.2358L38.5598 35.1487L43.783 50.7372H32.3643L22.9055 43.9269C22.3802 43.5487 21.6478 43.6679 21.2697 44.1931C20.8915 44.7183 21.0108 45.4507 21.5359 45.8289L30.6093 52.3617L28.8671 57.7685H22.1426C21.4954 57.7685 20.9707 58.2932 20.9707 58.9404C20.9707 59.5876 21.4954 60.1122 22.1426 60.1122H59.7988C60.446 60.1122 60.9707 59.5876 60.9707 58.9404C60.9707 58.2932 60.446 57.7684 59.7988 57.7684ZM36.326 24.7747C36.3258 24.7748 36.3262 24.7747 36.326 24.7747C36.3338 24.7758 37.7181 24.1299 40.1823 26.5243C41.4557 27.7615 42.5809 29.4092 43.3194 31.0862L34.535 34.0228C33.6055 30.0598 34.3912 25.4223 36.326 24.7747ZM50.8259 28.5769L45.5502 30.3405C44.539 27.9653 42.7962 25.5095 40.7884 23.9447C44.7634 23.8072 48.4363 25.3611 50.8259 28.5769ZM32.2627 26.7944C31.5945 29.27 31.6898 32.2804 32.3059 34.768L27.0285 36.5322C27.0045 32.6228 28.919 29.134 32.2627 26.7944ZM53.137 53.0809L55.4808 57.7684H48.6108L47.0402 53.0809H53.137ZM32.8399 53.0809H44.5684L46.139 57.7684H31.3295L32.8399 53.0809Z" fill="#EB662B"/>
</g>
</g>
</g>
</g>
<defs>
<clipPath id="clip0_4107_1120">
<rect width="40" height="41" fill="white" transform="translate(20.9707 20.0901)"/>
</clipPath>
<clipPath id="clip1_4107_1120">
<rect width="40" height="41" fill="white" transform="translate(20.9707 20.0901)"/>
</clipPath>
<clipPath id="clip2_4107_1120">
<rect width="40" height="41" fill="white" transform="translate(20.9707 20.0901)"/>
</clipPath>
</defs>
</svg>
