<svg width="30" height="41" viewBox="0 0 30 41" fill="none" xmlns="http://www.w3.org/2000/svg">
<path d="M26.8643 7.61241H24.9111V2.92382C24.9111 2.04905 24.4879 1.22077 23.7791 0.708193C23.0703 0.195615 22.1511 0.0530371 21.3203 0.327099L2.17958 6.64007C1.05637 7.01062 0.301758 8.05421 0.301758 9.23687V31.0756V37.4558C0.301758 38.9635 1.5284 40.1902 3.03614 40.1902H26.8643C28.372 40.1902 29.5986 38.9635 29.5986 37.4558V10.3468C29.5986 8.83913 28.372 7.61241 26.8643 7.61241ZM27.2549 37.4558C27.2549 37.6712 27.0797 37.8464 26.8643 37.8464H3.03614C2.82075 37.8464 2.64551 37.6712 2.64551 37.4558V29.9038V10.3468C2.64551 10.1314 2.82075 9.95616 3.03614 9.95616H26.8643C27.0797 9.95616 27.2549 10.1314 27.2549 10.3468V37.4558ZM22.0544 2.55288C22.2194 2.49851 22.3453 2.56366 22.4057 2.60734C22.4661 2.65101 22.5675 2.75015 22.5675 2.92382V7.61249H6.7141L22.0544 2.55288Z" fill="#EB662B"/>
<path d="M7.13772 23.509H8.55822H22.7627C23.4099 23.509 23.9346 22.9843 23.9346 22.3371C23.9346 21.6899 23.4099 21.1652 22.7627 21.1652H22.4232C21.9181 17.931 19.3563 15.3692 16.1221 14.8641V14.2769C16.1221 13.6297 15.5974 13.105 14.9502 13.105C14.303 13.105 13.7783 13.6297 13.7783 14.2769V14.8641C10.5441 15.3692 7.98232 17.931 7.47722 21.1652H7.13772C6.49052 21.1652 5.96582 21.6899 5.96582 22.3371C5.96582 22.9843 6.49052 23.509 7.13772 23.509ZM14.9502 17.1169C17.4258 17.1169 19.5044 18.8493 20.0378 21.1652H9.86262C10.396 18.8493 12.4747 17.1169 14.9502 17.1169Z" fill="#EB662B"/>
<path d="M7.59182 26.675C6.94462 26.675 6.41992 27.1996 6.41992 27.8468C6.41992 28.494 6.94462 29.0187 7.59182 29.0187H13.2168C13.864 29.0187 14.3887 28.494 14.3887 27.8468C14.3887 27.1996 13.864 26.675 13.2168 26.675H7.59182Z" fill="#EB662B"/>
<path d="M22.4697 31.3625H7.43069C6.78349 31.3625 6.25879 31.8872 6.25879 32.5344C6.25879 33.1816 6.78349 33.7062 7.43069 33.7062H22.4697C23.1169 33.7062 23.6416 33.1816 23.6416 32.5344C23.6416 31.8872 23.1169 31.3625 22.4697 31.3625Z" fill="#EB662B"/>
</svg>
