<svg width="51" height="51" viewBox="0 0 51 51" fill="none" xmlns="http://www.w3.org/2000/svg">
<g clip-path="url(#clip0_4107_1259)">
<g clip-path="url(#clip1_4107_1259)">
<path fill-rule="evenodd" clip-rule="evenodd" d="M26.0309 3.5791C18.548 3.5791 12.4824 9.64465 12.4824 17.1276C12.4898 21.8591 14.9608 26.2091 18.9388 28.651C19.5766 29.0429 20.2468 29.8975 20.3937 30.6312L20.7616 32.4727C20.9158 33.2429 21.5985 33.8026 22.3833 33.8026H29.6786C30.4633 33.8026 31.1459 33.2429 31.3002 32.4727L31.6681 30.6312C31.815 29.8975 32.4852 29.0429 33.123 28.6521C37.101 26.2092 39.572 21.8591 39.5793 17.1276C39.5793 9.64465 33.5138 3.5791 26.0309 3.5791Z" fill="#FDF0EA"/>
<path fill-rule="evenodd" clip-rule="evenodd" d="M20.6865 40.2954L31.3669 40.3496L30.457 45.8086C30.309 46.6955 29.5347 47.351 28.6363 47.351H23.4254C22.527 47.351 21.7526 46.6955 21.6046 45.8086L20.6865 40.2954Z" fill="white"/>
<path fill-rule="evenodd" clip-rule="evenodd" d="M20.2981 37.9714H31.7621C32.0383 37.9714 32.3041 38.0809 32.4989 38.2768C32.6949 38.4717 32.8044 38.7374 32.8044 39.0136V40.0558C32.8044 40.6279 32.3343 41.0979 31.7621 41.0979H20.2981C20.0219 41.0979 19.7561 40.9885 19.5613 40.7926C19.3653 40.5977 19.2559 40.3319 19.2559 40.0558V39.0136C19.2559 38.4414 19.7259 37.9714 20.2981 37.9714Z" fill="#FDF0EA"/>
<path fill-rule="evenodd" clip-rule="evenodd" d="M26.0307 3.5791C23.4408 3.5791 21.3408 9.64465 21.3408 17.1276C21.3429 21.8591 22.1985 26.2091 23.5762 28.651C23.7962 29.0429 24.0286 29.8975 24.0797 30.6312L24.2068 32.4727C24.26 33.2429 24.4965 33.8026 24.7675 33.8026H27.2937C27.5647 33.8026 27.8013 33.2429 27.8545 32.4727L27.9816 30.6312C28.0327 29.8975 28.2651 29.0429 28.485 28.6521C29.8627 26.2092 30.7184 21.8591 30.7205 17.1276C30.7205 9.64465 28.6205 3.5791 26.0307 3.5791Z" fill="white"/>
<path fill-rule="evenodd" clip-rule="evenodd" d="M10.5413 32.5145C9.97431 32.0173 9.24272 31.7183 8.44336 31.7183C6.64454 31.7183 5.18652 33.2347 5.18652 35.1053C5.18652 36.9761 6.64454 38.4925 8.44336 38.4925H13.0029C14.4421 38.4925 15.6084 37.2793 15.6084 35.7828C15.6084 34.2862 14.4421 33.0731 13.0029 33.0731C12.4464 33.0731 11.9295 33.2544 11.5063 33.564L10.5413 32.5145Z" fill="#FDF0EA"/>
<path fill-rule="evenodd" clip-rule="evenodd" d="M44.1677 25.4493C44.5648 25.1013 45.0775 24.8918 45.6372 24.8918C46.8962 24.8918 47.9164 25.9538 47.9164 27.2628C47.9164 28.5718 46.8962 29.6338 45.6372 29.6338H42.4449C41.4382 29.6338 40.6211 28.7843 40.6211 27.737C40.6211 26.6896 41.4382 25.8402 42.4449 25.8402C42.8348 25.8402 43.1963 25.9673 43.4923 26.1841L44.1677 25.4493Z" fill="white"/>
<path fill-rule="evenodd" clip-rule="evenodd" d="M19.9312 42.1077L20.5764 45.9804C20.8077 47.3666 22.0187 48.3931 23.4246 48.3931H28.6355C30.0415 48.3931 31.2525 47.3666 31.4839 45.9804L32.129 42.1067C33.1003 41.9316 33.8465 41.0738 33.8465 40.0556V39.0134C33.8465 38.4611 33.6266 37.9306 33.2358 37.5398C32.845 37.1489 32.3145 36.9291 31.7621 36.9291H31.241V34.3423C31.785 33.9547 32.1832 33.3679 32.3208 32.6769L32.6897 30.8354C32.7866 30.3508 33.2462 29.7984 33.6673 29.5399C37.9517 26.9095 40.6135 22.2248 40.6207 17.1296V17.1275C40.6207 9.06926 34.0883 2.53687 26.0301 2.53687C17.9719 2.53687 11.4395 9.06926 11.4395 17.1275V17.1285C11.4405 17.6017 11.4635 18.0697 11.5093 18.5344C11.5656 19.1066 12.0752 19.5256 12.6485 19.4693C13.2206 19.413 13.6395 18.9034 13.5833 18.3302C13.5447 17.9331 13.5249 17.5318 13.5239 17.1264C13.5239 11.3861 17.3914 6.55033 22.6628 5.07981C21.2663 7.58939 20.298 12.0416 20.298 17.1275V17.1285C20.3012 22.0727 21.2288 26.6114 22.667 29.1637C22.839 29.467 22.9995 30.134 23.039 30.703L23.1662 32.5446C23.1714 32.6186 23.1787 32.6905 23.186 32.7603H22.3825C22.0917 32.7603 21.8395 32.5539 21.7832 32.2684L21.4153 30.4268C21.2183 29.4441 20.3377 28.2883 19.4831 27.763C17.7583 26.7042 16.3399 25.2555 15.3206 23.5651C15.0235 23.0721 14.3815 22.9138 13.8896 23.2108C13.3967 23.5078 13.2383 24.1487 13.5353 24.6417C14.7245 26.6135 16.3795 28.3039 18.393 29.5399C18.814 29.7984 19.2736 30.3508 19.3705 30.8354L19.7395 32.6769C19.877 33.3679 20.2751 33.9547 20.8192 34.3423V36.9291H20.298C19.1548 36.9291 18.2137 37.8702 18.2137 39.0134V40.0556C18.2137 40.608 18.4336 41.1384 18.8245 41.5293C19.1277 41.8325 19.5144 42.0327 19.9312 42.1077ZM30.0113 42.14H29.6434C29.0681 42.14 28.6012 41.6731 28.6012 41.0978C28.6012 40.5225 29.0681 40.0556 29.6434 40.0556H31.7621V39.0968C31.6955 39.0801 31.6006 39.0134 31.7621 39.0134H20.298V39.9723C20.3648 39.9889 20.4596 40.0556 20.298 40.0556H26.2948C26.869 40.0556 27.337 40.5225 27.337 41.0978C27.337 41.6731 26.869 42.14 26.2948 42.14H22.049L22.6325 45.6376C22.6961 46.0232 23.0338 46.3088 23.4246 46.3088H28.6355C29.0264 46.3088 29.364 46.0232 29.4276 45.6376L30.0113 42.14ZM24.988 36.9291V34.8447H22.9035V36.9291H24.988ZM29.1567 36.9291V34.8447H27.0723V36.9291H29.1567ZM26.0301 4.62124C26.3021 4.62124 26.545 4.78591 26.7899 5.02144C27.1796 5.39559 27.533 5.95002 27.857 6.63787C28.9743 9.00259 29.6778 12.8222 29.6778 17.1275C29.6757 21.6464 28.892 25.8068 27.5767 28.1393C27.3068 28.6197 27.0035 29.6598 26.942 30.5592L26.8138 32.4008C26.8065 32.5154 26.7825 32.6457 26.7565 32.7603H25.3037C25.2776 32.6457 25.2537 32.5154 25.2464 32.4008L25.1182 30.5592C25.0567 29.6598 24.7535 28.6197 24.4835 28.1393C23.1683 25.8068 22.3845 21.6464 22.3825 17.1275C22.3825 12.8222 23.086 9.00259 24.2031 6.63787C24.5273 5.95002 24.8805 5.39559 25.2704 5.02144C25.5153 4.78591 25.7581 4.62124 26.0301 4.62124ZM29.3975 5.07981C30.794 7.58939 31.7621 12.0416 31.7621 17.1275V17.1285C31.76 22.0727 30.8315 26.6114 29.3932 29.1637C29.2213 29.467 29.0608 30.134 29.0212 30.703L28.894 32.5446C28.8888 32.6186 28.8815 32.6905 28.8742 32.7603H29.6778C29.9685 32.7603 30.2207 32.5539 30.277 32.2684L30.645 30.4268C30.8419 29.4441 31.7225 28.2883 32.5761 27.763C36.2488 25.5088 38.529 21.4943 38.5364 17.1264C38.5364 11.3871 34.6688 6.55033 29.3975 5.07981Z" fill="#EB662B"/>
<path fill-rule="evenodd" clip-rule="evenodd" d="M11.3096 31.8099C11.2835 31.7818 11.2574 31.7557 11.2293 31.7307C10.4768 31.072 9.5045 30.676 8.44355 30.676C6.08091 30.676 4.14453 32.6479 4.14453 35.1053C4.14453 37.5628 6.08091 39.5346 8.44355 39.5346H13.0031C15.0062 39.5346 16.6507 37.866 16.6507 35.7827C16.6507 33.6994 15.0062 32.0309 13.0031 32.0309C12.555 32.0309 12.1256 32.1142 11.7285 32.2664L11.3096 31.8099ZM9.81608 33.2648L10.7395 34.2694C11.098 34.6603 11.6931 34.7186 12.1214 34.406C12.3716 34.2236 12.6748 34.1152 13.0031 34.1152C13.8786 34.1152 14.5664 34.8729 14.5664 35.7827C14.5664 36.6925 13.8786 37.4502 13.0031 37.4502H8.44355C7.20856 37.4502 6.22891 36.3893 6.22891 35.1053C6.22891 33.8214 7.20856 32.7604 8.44355 32.7604C8.96151 32.7604 9.43783 32.949 9.813 33.2627L9.81608 33.2648Z" fill="#EB662B"/>
<path fill-rule="evenodd" clip-rule="evenodd" d="M43.481 24.6657L43.2444 24.9137C42.9912 24.8387 42.7224 24.798 42.4451 24.798C40.8735 24.798 39.5791 26.1029 39.5791 27.737C39.5791 29.3712 40.8735 30.6759 42.4451 30.6759H45.6374C47.4601 30.6759 48.9588 29.1585 48.9588 27.2629C48.9588 25.3671 47.4601 23.8496 45.6374 23.8496C44.8161 23.8496 44.0626 24.155 43.481 24.6657ZM44.8943 26.1998C45.0995 26.0341 45.3569 25.934 45.6374 25.934C46.3314 25.934 46.8744 26.5395 46.8744 27.2629C46.8744 27.9861 46.3314 28.5916 45.6374 28.5916H42.4451C42.0022 28.5916 41.6634 28.1977 41.6634 27.737C41.6634 27.2764 42.0022 26.8824 42.4451 26.8824C42.6066 26.8824 42.7557 26.9355 42.8776 27.0252C43.3059 27.3389 43.901 27.2795 44.2606 26.8897L44.8911 26.2019L44.8943 26.1998Z" fill="#EB662B"/>
<path d="M13.1433 22.3057C13.7191 22.3057 14.1858 21.8389 14.1858 21.263C14.1858 20.6872 13.7191 20.2205 13.1433 20.2205C12.5674 20.2205 12.1006 20.6872 12.1006 21.263C12.1006 21.8389 12.5674 22.3057 13.1433 22.3057Z" fill="#EB662B"/>
</g>
</g>
<defs>
<clipPath id="clip0_4107_1259">
<rect width="50" height="50" fill="white" transform="translate(0.980469 0.340088)"/>
</clipPath>
<clipPath id="clip1_4107_1259">
<rect width="50" height="50" fill="white" transform="translate(0.980469 0.340088)"/>
</clipPath>
</defs>
</svg>
