<svg width="20" height="21" viewBox="0 0 20 21" fill="none" xmlns="http://www.w3.org/2000/svg">
<g clip-path="url(#clip0_4107_1411)">
<path d="M10.0001 4.42932C7.95277 4.42932 6.28711 6.09498 6.28711 8.14232C6.28711 10.1897 7.95277 11.8553 10.0001 11.8553C12.0475 11.8553 13.7131 10.1897 13.7131 8.14232C13.7131 6.09498 12.0475 4.42932 10.0001 4.42932ZM10.0001 10.292C8.8148 10.292 7.85047 9.32764 7.85047 8.14232C7.85047 6.95701 8.8148 5.99268 10.0001 5.99268C11.1854 5.99268 12.1498 6.95701 12.1498 8.14232C12.1498 9.32764 11.1854 10.292 10.0001 10.292Z" fill="#05073C"/>
<path d="M10.0006 0.130005C5.58258 0.130005 1.98828 3.72434 1.98828 8.14231V8.3638C1.98828 10.5982 3.2693 13.2019 5.79586 16.1026C7.62742 18.2054 9.4334 19.6716 9.50934 19.733L10.0006 20.13L10.4918 19.7331C10.5678 19.6717 12.3738 18.2054 14.2053 16.1026C16.7318 13.2019 18.0129 10.5982 18.0129 8.36384V8.14234C18.0129 3.72434 14.4186 0.130005 10.0006 0.130005ZM16.4495 8.36384C16.4495 12.1398 11.5843 16.7107 10.0006 18.0983C8.41648 16.7103 3.55164 12.1395 3.55164 8.36384V8.14234C3.55164 4.58641 6.44465 1.6934 10.0006 1.6934C13.5565 1.6934 16.4495 4.58641 16.4495 8.14234V8.36384Z" fill="#05073C"/>
</g>
<defs>
<clipPath id="clip0_4107_1411">
<rect width="20" height="20" fill="white" transform="translate(0 0.130005)"/>
</clipPath>
</defs>
</svg>
