<svg width="51" height="51" viewBox="0 0 51 51" fill="none" xmlns="http://www.w3.org/2000/svg">
<path fill-rule="evenodd" clip-rule="evenodd" d="M47.9535 26.0748C47.9535 26.7533 47.5148 27.3546 46.8686 27.562C45.3814 28.005 44.3059 29.389 44.3059 31.0221C44.3059 32.6552 45.3814 34.0392 46.8613 34.503C47.4981 34.7083 47.9306 35.3003 47.9306 35.9694C47.9535 36.6812 47.9535 37.568 47.9535 38.3174C47.9535 39.1803 47.2532 39.8807 46.3903 39.8807C39.5816 39.8807 12.5535 39.8807 5.74492 39.8807C4.88199 39.8807 4.18164 39.1803 4.18164 38.3174C4.18164 37.568 4.18164 36.6812 4.18164 35.9694C4.18164 35.2909 4.6204 34.6895 5.26656 34.4821C6.75376 34.0392 7.8293 32.6552 7.8293 31.0221C7.8293 29.389 6.75377 28.005 5.27386 27.5412C4.63708 27.3359 4.20457 26.7439 4.20457 26.0748C4.18164 25.5745 4.18164 25.0055 4.18164 24.5053C4.18164 23.8268 4.6204 23.2255 5.26656 23.0181C6.75376 22.5751 7.8293 21.1911 7.8293 19.558C7.8293 17.9249 6.75377 16.5409 5.27386 16.0771C4.63708 15.8718 4.20457 15.2798 4.20457 14.6107C4.18164 13.899 4.18164 13.012 4.18164 12.2627C4.18164 11.3998 4.88199 10.6995 5.74492 10.6995H46.3903C47.2532 10.6995 47.9535 11.3998 47.9535 12.2627V14.6107C47.9535 15.2892 47.5148 15.8905 46.8686 16.098C45.3814 16.5409 44.3059 17.9249 44.3059 19.558C44.3059 21.1911 45.3814 22.5751 46.8613 23.039C47.4981 23.2442 47.9306 23.8362 47.9306 24.5053C47.9535 25.0055 47.9535 25.5745 47.9535 26.0748Z" fill="#FDF0EA"/>
<path fill-rule="evenodd" clip-rule="evenodd" d="M27.7839 19.7693C28.0716 19.3271 28.5641 19.0608 29.0917 19.0608C29.6194 19.0608 30.1118 19.3271 30.3995 19.7693C30.6771 20.1927 30.9447 20.6035 31.1432 20.9075C31.3529 21.2278 31.6733 21.4602 32.0426 21.5607C32.3931 21.655 32.8655 21.7831 33.3542 21.9163C33.8642 22.0532 34.2687 22.4389 34.432 22.9414C34.5954 23.4426 34.4936 23.9928 34.1632 24.4036C33.8454 24.798 33.5376 25.18 33.3102 25.4626C33.0703 25.7604 32.9484 26.1372 32.9673 26.5204C32.9849 26.8822 33.0087 27.3721 33.0338 27.8772C33.0602 28.4048 32.819 28.9085 32.3919 29.2189C31.966 29.5291 31.4107 29.6033 30.9183 29.4148C30.4447 29.2352 29.9861 29.0605 29.6482 28.9311C29.289 28.7955 28.8944 28.7955 28.5352 28.9311C28.1973 29.0605 27.7387 29.2352 27.2651 29.4148C26.7727 29.6033 26.2175 29.5291 25.7915 29.2189C25.3645 28.9085 25.1232 28.4048 25.1496 27.8772C25.1747 27.3721 25.1986 26.8822 25.2162 26.5204C25.235 26.1372 25.1132 25.7604 24.8732 25.4626C24.6459 25.18 24.338 24.798 24.0202 24.4036C23.6899 23.9928 23.588 23.4426 23.7514 22.9414C23.9147 22.4389 24.3192 22.0532 24.8293 21.9163C25.3179 21.7831 25.7903 21.655 26.1408 21.5607C26.5101 21.4602 26.8304 21.2278 27.0403 20.9075C27.2388 20.6035 27.5063 20.1927 27.7839 19.7693Z" fill="white"/>
<path fill-rule="evenodd" clip-rule="evenodd" d="M19.8146 38.8385C20.39 38.8385 20.8568 39.3053 20.8568 39.8806C20.8568 40.4559 20.39 40.9228 19.8146 40.9228C19.2394 40.9228 18.7725 40.4559 18.7725 39.8806C18.7725 39.3053 19.2394 38.8385 19.8146 38.8385ZM44.8271 11.7416H46.3904C46.6781 11.7416 46.9116 11.975 46.9116 12.2626V14.6107C46.9116 14.8296 46.774 15.0245 46.5697 15.0995C44.651 15.6747 43.2639 17.4548 43.2639 19.558C43.2639 21.6569 44.6469 23.436 46.5499 24.0331C46.749 24.0977 46.8886 24.2895 46.8886 24.5052C46.8886 24.5219 46.8886 24.5376 46.8896 24.5531C46.9116 25.0378 46.9116 25.5901 46.9116 26.0747C46.9116 26.2936 46.774 26.4885 46.5697 26.5636C44.651 27.1388 43.2639 28.9189 43.2639 31.0221C43.2639 33.121 44.6469 34.9 46.5499 35.4972C46.749 35.5618 46.8886 35.7536 46.8886 35.9693V36.0037C46.9116 36.7051 46.9116 37.5784 46.9116 38.3173C46.9116 38.605 46.6781 38.8385 46.3904 38.8385H22.9412C22.3659 38.8385 21.8991 39.3053 21.8991 39.8806C21.8991 40.4559 22.3659 40.9228 22.9412 40.9228H46.3904C47.8297 40.9228 48.9959 39.7566 48.9959 38.3173C48.9959 37.5607 48.9959 36.6655 48.973 35.9443C48.9646 34.8364 48.2424 33.8526 47.1804 33.5108C47.1783 33.5108 47.1762 33.5097 47.1741 33.5086C46.1163 33.1772 45.3482 32.1882 45.3482 31.0221C45.3482 29.8621 46.1091 28.8761 47.1658 28.5614C47.1731 28.5593 47.1804 28.5572 47.1877 28.5541C48.2653 28.2081 48.9959 27.2066 48.9959 26.0747C48.9959 25.5672 48.9959 24.9898 48.973 24.4802C48.9615 23.3692 48.2403 22.3875 47.1804 22.0467C47.1783 22.0467 47.1762 22.0456 47.1741 22.0446C46.1163 21.7132 45.3482 20.7241 45.3482 19.558C45.3482 18.398 46.1091 17.4121 47.1658 17.0974C47.1731 17.0953 47.1804 17.0931 47.1877 17.0901C48.2653 16.7441 48.9959 15.7425 48.9959 14.6107V12.2626C48.9959 10.8234 47.8297 9.65723 46.3904 9.65723H44.8271C44.2519 9.65723 43.785 10.1241 43.785 10.6994C43.785 11.2746 44.2519 11.7416 44.8271 11.7416ZM15.6459 38.8385V36.2246C15.6459 35.6493 15.179 35.1825 14.6037 35.1825C14.0284 35.1825 13.5616 35.6493 13.5616 36.2246V38.8385H5.74512C5.45747 38.8385 5.22402 38.605 5.22402 38.3173V35.9693C5.22402 35.7505 5.36159 35.5556 5.56587 35.4806C7.48453 34.9052 8.87168 33.1251 8.87168 31.0221C8.87168 28.9231 7.4887 27.1441 5.58566 26.5469C5.38661 26.4822 5.24696 26.2905 5.24696 26.0747C5.24696 26.0581 5.24695 26.0425 5.24591 26.0268C5.22402 25.5422 5.22402 24.9899 5.22402 24.5052C5.22402 24.2864 5.36159 24.0915 5.56587 24.0165C7.48453 23.4411 8.87168 21.6611 8.87168 19.558C8.87168 17.459 7.4887 15.68 5.58566 15.0828C5.38661 15.0182 5.24696 14.8264 5.24696 14.6107C5.24696 14.5992 5.24696 14.5878 5.24696 14.5763C5.22402 13.8749 5.22402 13.0016 5.22402 12.2626C5.22402 11.975 5.45747 11.7416 5.74512 11.7416H13.5616V15.3809C13.5616 15.9561 14.0284 16.4231 14.6037 16.4231C15.179 16.4231 15.6459 15.9561 15.6459 15.3809V11.7416H41.7006C42.2759 11.7416 42.7428 11.2746 42.7428 10.6994C42.7428 10.1241 42.2759 9.65723 41.7006 9.65723C41.7006 9.65723 11.4355 9.65723 5.74512 9.65723C4.30586 9.65723 3.13965 10.8234 3.13965 12.2626C3.13965 13.0193 3.13965 13.9146 3.16258 14.6357C3.17092 15.7436 3.89316 16.7274 4.95514 17.0692C4.95722 17.0692 4.95931 17.0703 4.96139 17.0713C6.01922 17.4027 6.78731 18.3917 6.78731 19.558C6.78731 20.7179 6.02651 21.7038 4.96972 22.0186C4.96243 22.0206 4.95514 22.0227 4.94784 22.0259C3.87022 22.3719 3.13965 23.3734 3.13965 24.5052C3.13965 25.0128 3.13965 25.5901 3.16258 26.0998C3.17404 27.2107 3.89524 28.1925 4.95514 28.5333C4.95722 28.5333 4.95931 28.5343 4.96139 28.5354C6.01922 28.8668 6.78731 29.8558 6.78731 31.0221C6.78731 32.182 6.02651 33.1679 4.96972 33.4826C4.96243 33.4847 4.95514 33.4868 4.94784 33.49C3.87022 33.836 3.13965 34.8375 3.13965 35.9693V38.3173C3.13965 39.7566 4.30586 40.9228 5.74512 40.9228H16.6881C17.2634 40.9228 17.7303 40.4559 17.7303 39.8806C17.7303 39.3053 17.2634 38.8385 16.6881 38.8385H15.6459ZM13.5616 27.8871V32.0559C13.5616 32.6311 14.0284 33.0981 14.6037 33.0981C15.179 33.0981 15.6459 32.6311 15.6459 32.0559V27.8871C15.6459 27.3118 15.179 26.845 14.6037 26.845C14.0284 26.845 13.5616 27.3118 13.5616 27.8871ZM13.5616 19.5496V23.7184C13.5616 24.2936 14.0284 24.7606 14.6037 24.7606C15.179 24.7606 15.6459 24.2936 15.6459 23.7184V19.5496C15.6459 18.9743 15.179 18.5075 14.6037 18.5075C14.0284 18.5075 13.5616 18.9743 13.5616 19.5496Z" fill="#EB662B"/>
<path fill-rule="evenodd" clip-rule="evenodd" d="M26.9992 19.3963L26.2551 20.5351C26.1847 20.6419 26.0778 20.7198 25.9547 20.7525L24.6425 21.1082C23.7928 21.3382 23.1179 21.9817 22.8452 22.8188C22.5737 23.6546 22.7421 24.5721 23.2938 25.2571L24.1473 26.3167C24.2277 26.416 24.268 26.5416 24.2617 26.6686L24.1938 28.0273C24.1511 28.9058 24.5532 29.748 25.2647 30.2646C25.9773 30.7811 26.9011 30.9043 27.7231 30.5913L28.9938 30.1074C29.1145 30.0621 29.2452 30.0621 29.3646 30.1074L30.6366 30.5913C31.4586 30.9043 32.3823 30.7811 33.095 30.2646C33.8064 29.748 34.2086 28.9058 34.1658 28.0273L34.098 26.6686C34.0917 26.5416 34.1319 26.416 34.2123 26.3167L35.0657 25.2571C35.6176 24.5721 35.786 23.6546 35.5145 22.8188C35.2417 21.9817 34.5668 21.3382 33.7172 21.1082L32.405 20.7525C32.2818 20.7198 32.175 20.6419 32.1046 20.5351L31.3605 19.3963C30.8804 18.6598 30.0597 18.2161 29.1798 18.2161C28.3 18.2161 27.4792 18.6598 26.9992 19.3963ZM28.7437 20.5363C28.8405 20.3892 29.0038 20.3001 29.1798 20.3001C29.3558 20.3001 29.5192 20.3892 29.616 20.5363L30.36 21.6751C30.7094 22.2105 31.2437 22.5976 31.8595 22.7647L33.1729 23.1205C33.3426 23.167 33.4771 23.2951 33.5312 23.4623C33.5864 23.6295 33.5525 23.813 33.4419 23.95L32.5885 25.0096C32.1888 25.5072 31.9839 26.1345 32.0166 26.773L32.0832 28.1304C32.092 28.3063 32.0116 28.4747 31.8696 28.5778C31.7275 28.6821 31.5427 28.7061 31.3781 28.6431L30.1074 28.1593C29.5092 27.9331 28.8505 27.9331 28.2522 28.1593L26.9816 28.6431C26.8169 28.7061 26.6322 28.6821 26.4901 28.5778C26.3481 28.4747 26.2677 28.3063 26.2764 28.1304L26.3431 26.773C26.3757 26.1345 26.1708 25.5072 25.7712 25.0096L24.9177 23.95C24.8072 23.813 24.7732 23.6295 24.8285 23.4623C24.8826 23.2951 25.0171 23.167 25.1867 23.1205L26.5002 22.7647C27.116 22.5976 27.6502 22.2105 27.9997 21.6751L28.7437 20.5363Z" fill="#EB662B"/>
</svg>
