<svg width="46" height="32" viewBox="0 0 46 32" fill="none" xmlns="http://www.w3.org/2000/svg">
<path fill-rule="evenodd" clip-rule="evenodd" d="M16.8146 29.8385C17.39 29.8385 17.8568 30.3053 17.8568 30.8806C17.8568 31.4559 17.39 31.9228 16.8146 31.9228C16.2394 31.9228 15.7725 31.4559 15.7725 30.8806C15.7725 30.3053 16.2394 29.8385 16.8146 29.8385ZM41.8271 2.74156H43.3904C43.6781 2.74156 43.9116 2.97498 43.9116 3.26264V5.61073C43.9116 5.82956 43.774 6.02448 43.5697 6.09948C41.651 6.67473 40.2639 8.45481 40.2639 10.558C40.2639 12.6569 41.6469 14.436 43.5499 15.0331C43.749 15.0977 43.8886 15.2895 43.8886 15.5052C43.8886 15.5219 43.8886 15.5376 43.8896 15.5531C43.9116 16.0378 43.9116 16.5901 43.9116 17.0747C43.9116 17.2936 43.774 17.4885 43.5697 17.5636C41.651 18.1388 40.2639 19.9189 40.2639 22.0221C40.2639 24.121 41.6469 25.9 43.5499 26.4972C43.749 26.5618 43.8886 26.7536 43.8886 26.9693V27.0037C43.9116 27.7051 43.9116 28.5784 43.9116 29.3173C43.9116 29.605 43.6781 29.8385 43.3904 29.8385H19.9412C19.3659 29.8385 18.8991 30.3053 18.8991 30.8806C18.8991 31.4559 19.3659 31.9228 19.9412 31.9228H43.3904C44.8297 31.9228 45.9959 30.7566 45.9959 29.3173C45.9959 28.5607 45.9959 27.6655 45.973 26.9443C45.9646 25.8364 45.2424 24.8526 44.1804 24.5108C44.1783 24.5108 44.1762 24.5097 44.1741 24.5086C43.1163 24.1772 42.3482 23.1882 42.3482 22.0221C42.3482 20.8621 43.1091 19.8761 44.1658 19.5614C44.1731 19.5593 44.1804 19.5572 44.1877 19.5541C45.2653 19.2081 45.9959 18.2066 45.9959 17.0747C45.9959 16.5672 45.9959 15.9898 45.973 15.4802C45.9615 14.3692 45.2403 13.3875 44.1804 13.0467C44.1783 13.0467 44.1762 13.0456 44.1741 13.0446C43.1163 12.7132 42.3482 11.7241 42.3482 10.558C42.3482 9.39798 43.1091 8.41214 44.1658 8.09739C44.1731 8.09531 44.1804 8.09314 44.1877 8.09006C45.2653 7.74406 45.9959 6.74248 45.9959 5.61073V3.26264C45.9959 1.82339 44.8297 0.657227 43.3904 0.657227H41.8271C41.2519 0.657227 40.785 1.12406 40.785 1.69939C40.785 2.27464 41.2519 2.74156 41.8271 2.74156ZM12.6459 29.8385V27.2246C12.6459 26.6493 12.179 26.1825 11.6037 26.1825C11.0284 26.1825 10.5616 26.6493 10.5616 27.2246V29.8385H2.74512C2.45747 29.8385 2.22402 29.605 2.22402 29.3173V26.9693C2.22402 26.7505 2.36159 26.5556 2.56587 26.4806C4.48453 25.9052 5.87168 24.1251 5.87168 22.0221C5.87168 19.9231 4.4887 18.1441 2.58566 17.5469C2.38661 17.4822 2.24696 17.2905 2.24696 17.0747C2.24696 17.0581 2.24695 17.0425 2.24591 17.0268C2.22402 16.5422 2.22402 15.9899 2.22402 15.5052C2.22402 15.2864 2.36159 15.0915 2.56587 15.0165C4.48453 14.4411 5.87168 12.6611 5.87168 10.558C5.87168 8.45898 4.4887 6.67998 2.58566 6.08281C2.38661 6.01823 2.24696 5.82639 2.24696 5.61073C2.24696 5.59923 2.24696 5.58781 2.24696 5.57631C2.22402 4.87489 2.22402 4.00156 2.22402 3.26264C2.22402 2.97498 2.45747 2.74156 2.74512 2.74156H10.5616V6.38089C10.5616 6.95614 11.0284 7.42306 11.6037 7.42306C12.179 7.42306 12.6459 6.95614 12.6459 6.38089V2.74156H38.7006C39.2759 2.74156 39.7428 2.27464 39.7428 1.69939C39.7428 1.12406 39.2759 0.657227 38.7006 0.657227C38.7006 0.657227 8.43547 0.657227 2.74512 0.657227C1.30586 0.657227 0.139648 1.82339 0.139648 3.26264C0.139648 4.01931 0.139648 4.91456 0.162582 5.63573C0.170915 6.74356 0.893157 7.72739 1.95514 8.06923C1.95722 8.06923 1.95931 8.07031 1.96139 8.07131C3.01922 8.40273 3.78731 9.39173 3.78731 10.558C3.78731 11.7179 3.02651 12.7038 1.96972 13.0186C1.96243 13.0206 1.95514 13.0227 1.94784 13.0259C0.870223 13.3719 0.139648 14.3734 0.139648 15.5052C0.139648 16.0128 0.139648 16.5901 0.162582 17.0998C0.17404 18.2107 0.89524 19.1925 1.95514 19.5333C1.95722 19.5333 1.95931 19.5343 1.96139 19.5354C3.01922 19.8668 3.78731 20.8558 3.78731 22.0221C3.78731 23.182 3.02651 24.1679 1.96972 24.4826C1.96243 24.4847 1.95514 24.4868 1.94784 24.49C0.870223 24.836 0.139648 25.8375 0.139648 26.9693V29.3173C0.139648 30.7566 1.30586 31.9228 2.74512 31.9228H13.6881C14.2634 31.9228 14.7303 31.4559 14.7303 30.8806C14.7303 30.3053 14.2634 29.8385 13.6881 29.8385H12.6459ZM10.5616 18.8871V23.0559C10.5616 23.6311 11.0284 24.0981 11.6037 24.0981C12.179 24.0981 12.6459 23.6311 12.6459 23.0559V18.8871C12.6459 18.3118 12.179 17.845 11.6037 17.845C11.0284 17.845 10.5616 18.3118 10.5616 18.8871ZM10.5616 10.5496V14.7184C10.5616 15.2936 11.0284 15.7606 11.6037 15.7606C12.179 15.7606 12.6459 15.2936 12.6459 14.7184V10.5496C12.6459 9.97431 12.179 9.50748 11.6037 9.50748C11.0284 9.50748 10.5616 9.97431 10.5616 10.5496Z" fill="#EB662B"/>
</svg>
